<svg id="Layer_1" data-name="Layer 1" xmlns="http://www.w3.org/2000/svg" xmlns:xlink="http://www.w3.org/1999/xlink" viewBox="0 0 1500 1000"><defs><style>.cls-1{fill:#1f2255;}.cls-2{fill:url(#linear-gradient);}.cls-3{fill:url(#linear-gradient-2);}.cls-4{fill:url(#linear-gradient-3);}.cls-5{fill:url(#linear-gradient-4);}.cls-6{fill:#fff;}</style><linearGradient id="linear-gradient" x1="1566.73" y1="-250.81" x2="-146.31" y2="1042.71" gradientUnits="userSpaceOnUse"><stop offset="0" stop-color="#26b9e9"/><stop offset="0.5" stop-color="#41d1c0"/><stop offset="1" stop-color="#52e2a6"/></linearGradient><linearGradient id="linear-gradient-2" x1="1138.86" y1="124.83" x2="445.97" y2="648.04" xlink:href="#linear-gradient"/><linearGradient id="linear-gradient-3" x1="1157.56" y1="262.98" x2="615.18" y2="672.53" xlink:href="#linear-gradient"/><linearGradient id="linear-gradient-4" x1="983.87" y1="364.43" x2="608.95" y2="647.53" xlink:href="#linear-gradient"/></defs><rect class="cls-1" width="1500" height="1000"/><path class="cls-2" d="M679.54,451.2C673.15,440,666.3,428,662.64,411.07c-6.43-29.68,1.23-54.73,5.07-65.05s13.23-34.63,38.43-52.38a101.89,101.89,0,0,1,29-14.06c-30.21,19.82-50.4,51.05-53.87,85.7-4.55,45.5,21.55,78.51,27.46,85.63-20.77-36.29-21.61-79.86-1.31-113.74,4.2-7,27.57-44.08,73.87-49.68,41.9-5.06,71.64,19.42,76.66,23.7l-.1.16a115.29,115.29,0,0,1,23.83,29,126.39,126.39,0,0,0-5.49-21.68,122.84,122.84,0,0,0-20.92-37.56c-31.2-37.24-78.06-42.51-96-44.53-17.38-2-60.72-6.19-103,20.38-9.37,5.89-38.61,25.55-51.51,56.88-4.27,10.37-9.08,22.07-9,37.56,0,7.86,1.35,12.19-.14,20.92-1.7,10.08-5.59,17.08-10.19,25.21s-10.07,15.68-20.93,30.58c-7.67,10.55-11.35,15.21-9.65,19.86,1.93,5.3,10.15,8.5,11.81,9.11,5.72,2.1,8.3.73,10.18,3.22s1.22,6.11,0,13.41c-.77,4.66-1.33,5.19-1.06,7,.44,3,2.77,6.62,10.18,10.2a7.92,7.92,0,0,0-4.83,4.82c-.57,1.88.44,3.47,3.22,8.59s4.18,7.66,4.3,8c1.8,5.69-2,8.83-2.69,15-1.22,10.72,8,19.8,9.13,20.93,7.39,7.31,16.78,8.51,25.75,9.66,9.36,1.2,10.55-.37,20.92,1.07,9.08,1.27,16.17,2.25,20.39,5.9,8.53,7.38,6.6,26.79-3.07,47.62a115.36,115.36,0,0,0,27.79-19.3c7.56-7.11,20.56-19.42,27-39.38,8.75-27-.34-51.24-3.09-57.9C702.81,476.86,695,478.32,679.54,451.2Zm178.36-140Z"/><path class="cls-3" d="M760.58,446.64c-.82,2-2.12,4.79.07,6.55a29.22,29.22,0,0,0,18.14,6.35c5.09.06,5.46-5.54,6.25-9,2.25-9.66,10.12-7.9,16.59-9.2,6.25-1.26,6.76,4.45,9.31,7.65,2,2.48,2.52,7.14,6.11,7,6.7-.22,12.51-3.76,17.32-8.2,4.06-3.74-.62-7.17-1.59-10.68s-3.82-6.58-1.58-10.55c5.5-9.73,8.88-11.11,20.26-8.65,2.59.56,5.79,2.67,7.9,0a28.75,28.75,0,0,0,6.18-18.21c-.06-5.22-6.19-4.57-9.66-6.45-2.58-1.4-6.13-1.42-7.38-4.71-3.59-9.42-1.39-16.64,7.56-21.14,6.7-3.37,7.09-7.18,4.05-13.31-6.18-12.46-6-12.65-19-7.24-4.16,1.74-7,1.75-11.24-1.28-7.4-5.34-8.87-11.19-5.6-19.09a28.47,28.47,0,0,0,1-3.94c-.12-.59,0-2.15-.63-2.73-5.34-4.59-12-6.49-18.7-6.69-4.75-.15-5.3,5.19-5.8,8.42-1.59,10.31-9.74,8.59-16.38,9.84-6,1.12-7.08-4.09-9.58-7.48-1.88-2.57-2.45-7.25-5.84-7.32-7-.13-12.89,3.94-17.94,8.35-3.79,3.31.63,6.75,1.58,10.06,1.06,3.67,4.18,7,1.71,11.17-5.83,9.92-9,11.16-20.49,8.41-2.56-.61-5.71-2.72-7.8.13a29.68,29.68,0,0,0-6,18.29c.15,5.19,6.45,4.21,9.76,6.38,2.58,1.7,6.44,1.48,7.4,5.56,3,12.63,2.33,14.18-9.1,21.19-2.1,1.29-5.39,2.16-4.81,5.28,1.2,6.52,4.07,12.68,8.86,17.1,3.8,3.51,7.71-1.08,11.37-2.46,4.35-1.65,7.46-2.23,12,.92C762.73,432.48,763.89,438.5,760.58,446.64Zm30.11-92.24c18.28-1,32.73,12.06,33.68,30.53.92,18-12,32.29-30.15,33.3-18.46,1-32.86-12-33.7-30.45C759.71,369.83,772.73,355.43,790.69,354.4Z"/><path class="cls-4" d="M945.61,465.28c-.35-8.35-1.69-10.47-9.59-10.09-6.22.31-8.33-2.95-10.82-7.57s-.31-7.69,2.55-10.4c5.63-5.34,2.81-9.15-1.63-13.16s-8.59-6.59-13.22-.27c-3,4.1-6.71,4.72-11.64,2.89s-7.52-4.44-7.24-9.62c.4-7.14-3.8-8.59-9.77-8.32s-10.91,1.12-10.3,8.82c.37,4.61-.16,8.05-5.42,10.58-5.43,2.6-9.2,2.06-13-1.9-5.7-6-9.31-1.63-13,2.47s-6,7.91-.32,12.21c4.12,3.1,5.43,6.64,3.39,12.08-2,5.27-4.89,7.6-10.22,7.4-6.87-.27-8,3.89-7.68,9.54s.65,11.3,8.52,10.38c6-.69,9,1.73,11.66,7.14s0,8.47-3.09,11.49c-5.27,5.18-2,8.64,2,12s7.65,7.77,12.73,1.52c3.33-4.11,6.81-5.9,12.65-3.74s7.14,5.94,7.38,11.13c.14,2.87.57,5.42,4.08,6.44,9.48,2.78,15.73-1.1,15.61-10.75-.07-5.56,3.29-6.81,7.07-8.87,4-2.16,6.83-1.71,10,1.22,2,1.85,3.93,4,6.66,4.4,2.74-.06,9.47-6.66,11.16-10.31,2-4.24-1.45-6-3.69-8-3.88-3.4-4.5-6.73-2.66-11.67s4.36-7.59,9.51-7.32C944.39,475.39,945.85,471.27,945.61,465.28ZM888.15,492.5a24.87,24.87,0,1,1,23.36-26.16A24.4,24.4,0,0,1,888.15,492.5Z"/><path class="cls-5" d="M832.52,501.58c4.35-2.15,5-4.89,3.51-9-1.42-3.93-3.25-6.86-7.74-5.1-8.49,1.18-12-2.84-9.25-10.7,1.62-4.6-.61-6.44-4-8.1s-6.06-2.83-8.89,1.41c-5.09,7.63-10.06,7.17-14.6-1.28-2.47-4.58-5.67-3-8.91-2s-5.66,2.62-4.79,7.06c1.67,8.57-2.58,12.53-10.53,9.61-5.26-1.94-6.57,1.3-8.39,4.62-2,3.56-1.94,6.16,2.1,8.66,6.81,4.22,6.45,10.32-.85,14-4.6,2.33-4.36,5.28-2.95,9.19,1.35,3.74,3,5.63,7.69,4.59,8.1-1.78,12.08,2.86,9.22,10.6-1.66,4.52.21,6.41,3.7,8.2,3.7,1.9,6.58,2.51,9.39-1.86,4.32-6.73,10.35-6.24,14,1.07,2.11,4.17,4.67,4.42,8.5,3s6.44-3,5.26-8.06c-1.77-7.52,3.1-12.07,9.93-9.24,4.63,1.92,6.81.53,8.8-3.44s2.68-6.87-2.11-9.81C825.51,511.19,826,504.77,832.52,501.58ZM797.69,523c-9.81.66-17.89-6.18-18.66-15.8-.75-9.26,6.78-17.81,16.27-18.48a17.59,17.59,0,0,1,18.65,16A17.08,17.08,0,0,1,797.69,523Z"/><path class="cls-6" d="M473.9,686.69q10.65,8.53,13.77,23.09H465.9a20,20,0,0,0-7.4-9.26,20.68,20.68,0,0,0-11.84-3.37,18.06,18.06,0,0,0-14.56,6.62q-5.53,6.62-5.53,17.68t5.53,17.62a18.13,18.13,0,0,0,14.56,6.56,20.6,20.6,0,0,0,11.84-3.37,20,20,0,0,0,7.4-9.14h21.77q-3.12,14.43-13.77,23T447,764.75a42.38,42.38,0,0,1-21.77-5.47,37.13,37.13,0,0,1-14.5-15.34,52,52,0,0,1,0-45,37.13,37.13,0,0,1,14.5-15.34A42.38,42.38,0,0,1,447,678.15Q463.25,678.15,473.9,686.69Z"/><path class="cls-6" d="M529.71,699.8a25.29,25.29,0,0,1,13.17-3.61v22H537q-8.19,0-12.69,3.49t-4.52,11.79V764H499.22V696.91h20.56v12.63A29.26,29.26,0,0,1,529.71,699.8Z"/><path class="cls-6" d="M614.69,734.2H568.14q.36,7.57,3.85,10.89a12.42,12.42,0,0,0,8.9,3.3,12.22,12.22,0,0,0,7.58-2.28,10.66,10.66,0,0,0,4-5.9h21.78a28.42,28.42,0,0,1-5.78,12.69,30.71,30.71,0,0,1-11.3,8.78,38.61,38.61,0,0,1-32.78-1,29.6,29.6,0,0,1-12-12,41.13,41.13,0,0,1-.06-36.62,29.34,29.34,0,0,1,12-11.91,39.48,39.48,0,0,1,35.12-.06,29,29,0,0,1,11.73,11.49,34.24,34.24,0,0,1,4.15,17A28.4,28.4,0,0,1,614.69,734.2Zm-23.76-18.58a13,13,0,0,0-9.08-3.31,13.43,13.43,0,0,0-9.38,3.37q-3.74,3.36-4.21,9.86h26.22Q594.6,718.93,590.93,715.62Z"/><path class="cls-6" d="M724.14,696.91,706.94,764H684l-12.15-45-12.27,45h-23l-17.2-67.12h20.56l8.91,48.36,12.5-48.36h21.9l12.87,48.48,8.9-48.48Z"/><path class="cls-6" d="M827.22,679.59V764H806.65v-52.8L788.37,764h-17.8l-18.41-52.92V764H731.6V679.59h25.14l23,58.82,22.49-58.82Z"/><path class="cls-6" d="M842.86,670.27a14.44,14.44,0,0,1,17.8,0A10.07,10.07,0,0,1,864,678a9.93,9.93,0,0,1-3.37,7.64,14.47,14.47,0,0,1-17.8,0,9.9,9.9,0,0,1-3.37-7.64A10,10,0,0,1,842.86,670.27ZM862,696.91V764H841.41V696.91Z"/><path class="cls-6" d="M937.09,703.89q6.79,7.7,6.8,21.17v39H923.32V727.46q0-6.74-3.55-10.52a12.3,12.3,0,0,0-9.44-3.79q-6.26,0-9.92,4t-3.67,11.31V764H876.17V696.91h20.57v12.27a22.12,22.12,0,0,1,8.6-9.5,25.19,25.19,0,0,1,13.41-3.49Q930.3,696.19,937.09,703.89Z"/><path class="cls-6" d="M996.21,699.56a20.24,20.24,0,0,1,8.06,9.5V675h20.57v89h-20.57V751.88a20.19,20.19,0,0,1-8.06,9.5A24.26,24.26,0,0,1,983,764.87a27.12,27.12,0,0,1-14.85-4.15,28.28,28.28,0,0,1-10.35-12,46.12,46.12,0,0,1,0-36.62,28.47,28.47,0,0,1,10.35-11.91A27.12,27.12,0,0,1,983,696.07,24.26,24.26,0,0,1,996.21,699.56ZM979,718.44q-4,4.34-4,12t4,12a15.1,15.1,0,0,0,21.29-.12q4.15-4.46,4.15-11.91t-4.15-12a15.18,15.18,0,0,0-21.29-.06Z"/><path class="cls-6" d="M1083.84,702.45a27.73,27.73,0,0,1,9.56,16.84h-19.25a10.62,10.62,0,0,0-3.79-6.44,11.51,11.51,0,0,0-7.39-2.35,8.13,8.13,0,0,0-5.3,1.51,5.24,5.24,0,0,0-1.8,4.27c0,2.08,1.1,3.65,3.31,4.69a52.56,52.56,0,0,0,10.4,3.13,101.78,101.78,0,0,1,12.63,3.67,20.72,20.72,0,0,1,8.54,6.07q3.62,4.21,3.61,11.31a17.3,17.3,0,0,1-3.13,10.22,20.58,20.58,0,0,1-9,7,35.32,35.32,0,0,1-14,2.52q-13.59,0-21.77-6t-10-17.2h19.85a8.91,8.91,0,0,0,3.67,6.61,13.76,13.76,0,0,0,8.24,2.29,7.63,7.63,0,0,0,5.29-1.63,5.47,5.47,0,0,0,1.81-4.27,5.15,5.15,0,0,0-3.31-5,61.18,61.18,0,0,0-10.77-3.18,87.64,87.64,0,0,1-12.27-3.37,20.29,20.29,0,0,1-8.3-5.84q-3.48-4-3.48-11a18,18,0,0,1,6.85-14.62q6.86-5.58,19.37-5.59Q1076.2,696.07,1083.84,702.45Z"/></svg>