<svg id="Layer_1" data-name="Layer 1" xmlns="http://www.w3.org/2000/svg" viewBox="0 0 1500 1000"><defs><style>.cls-1{fill:#c0e257;}.cls-2{fill:#0f5a2f;}</style></defs><rect class="cls-1" width="1500" height="1000"/><path class="cls-2" d="M347.4,461a49.71,49.71,0,0,1,19.35,22.48V454.76h48.37V613.53H366.75V584.79a49.65,49.65,0,0,1-19.35,22.48q-13.09,8.25-31.3,8.25A64.26,64.26,0,0,1,281,605.7q-15.51-9.81-24.47-28.31t-9-43.25q0-25,9-43.39T281,462.59a64.26,64.26,0,0,1,35.14-9.82Q334.31,452.77,347.4,461Zm-40.83,44.67Q297,515.93,297,534.14t9.53,28.46q9.53,10.23,25.18,10.24,15.36,0,25.18-10.53t9.82-28.17q0-17.92-9.82-28.31t-25.18-10.38Q316.11,495.45,306.57,505.69Z"/><path class="cls-2" d="M445,391.74q8-7.26,21.06-7.26t21.05,7.26a23.74,23.74,0,0,1,8,18.35,23.45,23.45,0,0,1-8,18.07q-8,7.24-21.05,7.25T445,428.16a23.45,23.45,0,0,1-8-18.07A23.74,23.74,0,0,1,445,391.74Zm45.24,63V613.53H441.58V454.76Z"/><path class="cls-2" d="M588.82,461.59A59.89,59.89,0,0,1,620,453.05v52.07H606q-19.35,0-30,8.25t-10.67,27.89v72.27H516.69V454.76h48.65v29.88A69,69,0,0,1,588.82,461.59Z"/><path class="cls-2" d="M756.54,469.7q20.78,16.94,26.18,46.52h-51.5q-2.28-10.25-9.39-15.94t-17.93-5.69a26,26,0,0,0-21,10.1q-8.25,10.11-8.25,29.45t8.25,29.45a26,26,0,0,0,21,10.1q10.82,0,17.93-5.69t9.39-15.93h51.5q-5.41,29.59-26.18,46.52T705,615.52q-23.32,0-41.4-9.82a70.15,70.15,0,0,1-28.31-28.31q-10.23-18.5-10.24-43.25,0-25,10.1-43.39a69.18,69.18,0,0,1,28.31-28.16q18.21-9.82,41.54-9.82Q735.78,452.77,756.54,469.7Z"/><path class="cls-2" d="M955.79,515.8c-16,9.42-31.35,18.86-47.18,27.52-.48.27-1,.52-1.44.76q-1.89,11.91-8.65,19.08a30.75,30.75,0,0,1-23.33,10,31.2,31.2,0,0,1-23.47-10q-7-7.26-8.84-19.42c-9.08-4.73-17.6-10.56-26.48-15.7-7.13-4.14-14.35-8.11-22.07-12.4a99.87,99.87,0,0,0-1.65,18.5q0,24.76,10.67,43.25a71.65,71.65,0,0,0,29.45,28.32q18.78,9.81,42.39,9.8t42.25-9.8a72,72,0,0,0,29.31-28.32q10.66-18.48,10.67-43.25A99.16,99.16,0,0,0,955.79,515.8Z"/><path class="cls-2" d="M1047.75,461.59a59.93,59.93,0,0,1,31.16-8.54v52.07H1065q-19.37,0-30,8.25t-10.67,27.89v72.27H975.63V454.76h48.65v29.88A69,69,0,0,1,1047.75,461.59Z"/><path class="cls-2" d="M1236.39,471.26q16.08,18.21,16.08,50.08v92.19h-48.66V527q0-15.93-8.39-24.9t-22.34-9q-14.79,0-23.47,9.39t-8.68,26.75v84.22h-48.65V454.76h48.65v29a52.51,52.51,0,0,1,20.35-22.48q13.5-8.24,31.72-8.25Q1220.32,453.05,1236.39,471.26Z"/><path class="cls-2" d="M952.8,504.31c-14.95,8.87-29.46,17.69-44.35,25.85l-.64.34c-21.16,11.35-42.91,11.38-64.34.31l-1.17-.62c-8.77-4.63-17-10.25-25.62-15.24-6.27-3.64-12.62-7.15-19.3-10.86a72.14,72.14,0,0,1,6-13.2c1.17-2,2.41-4,3.74-5.84a19.27,19.27,0,0,1,8.77,3.05c9.65,6.12,19.16,12.48,28.76,18.68,1.28.83,2.56,1.6,3.84,2.33,17.66,10,35.48,10.31,53.38.2,1-.55,1.93-1.12,2.91-1.73,10.55-6.62,20.63-14.12,31.56-20a21.89,21.89,0,0,1,6.74-2.43c1.32,1.84,2.54,3.77,3.7,5.78A73.86,73.86,0,0,1,952.8,504.31Z"/><path class="cls-2" d="M934.67,475.16c-13.73,8.49-27.28,17.35-41.36,25.25l-1,.54c-11.58,6.47-23.93,5.87-35.38-.52-.35-.19-.72-.4-1.07-.61-13.56-8-26.79-16.61-40.11-25a71.9,71.9,0,0,1,17-12.24,23.21,23.21,0,0,1,6.89,2.36c8.51,4.41,16.82,9.25,25,14.3,7.18,4.46,14,4.56,21.16.18,8.21-5,16.51-9.83,25-14.31a23.7,23.7,0,0,1,6.76-2.47h0A71.28,71.28,0,0,1,934.67,475.16Z"/><path class="cls-2" d="M860,435.25h30.43c-2.35,10.22-4.11,20.09-7.24,29.5-.59,1.78-6.65,2.26-10.21,2.33-2,0-5.39-1.6-5.85-3.16C864.47,454.78,862.47,445.44,860,435.25Z"/></svg>