<svg id="Layer_1" data-name="Layer 1" xmlns="http://www.w3.org/2000/svg" viewBox="0 0 1500 1000"><defs><style>.cls-1{fill:#1b76d1;}.cls-2{fill:#fff;}.cls-3{fill:#add0f0;}</style></defs><rect class="cls-1" width="1500" height="1000"/><path class="cls-2" d="M939.83,432.62l-38.11-30.53-60.13-48.21-38.22,30.46,60.16,48.19-34,27.06-60.05-48.1-.1-.08,0,0-38.85,31q30.42,23.82,60.86,47.62h0l-34.67,27.64h0l-60.15-48.19-38.14,30.39,60.09,48.23,26.39,21.14,11.74,9.4h0l38.19-30.45h0l34.66-27.63h0l38.19-30.43h0l33.95-27.06Z"/><polygon class="cls-2" points="743.29 275.19 803.44 323.38 841.63 292.93 781.49 244.75 743.37 214.21 705.17 244.66 670.51 272.29 670.5 272.3 670.5 272.29 632.31 302.73 632.32 302.73 598.36 329.8 560.17 360.24 598.28 390.77 658.43 438.95 696.63 408.52 636.47 360.33 670.43 333.26 730.48 381.37 730.58 381.45 730.63 381.41 768.73 351.04 768.77 351.01 708.62 302.82 708.62 302.82 743.29 275.19"/><polygon class="cls-3" points="696.63 408.5 696.63 469.42 658.44 499.86 658.42 499.87 658.42 438.97 658.43 438.95 696.62 408.52 696.63 408.5"/><polygon class="cls-3" points="768.73 351.04 768.73 411.95 730.54 442.39 730.51 442.41 730.51 381.5 730.58 381.45 730.63 381.41 768.73 351.04"/><polygon class="cls-3" points="841.59 292.97 841.59 353.88 803.41 384.32 803.37 384.34 803.37 323.43 803.44 323.38 841.59 292.97"/><path class="cls-2" d="M591.38,622.35V723.29H566.82V681.18H528.56v42.11H504.14V622.35h24.42v39.12h38.26V622.35Z"/><path class="cls-2" d="M658.7,650.19a33,33,0,0,1,11.35,20H647.2a12.66,12.66,0,0,0-4.49-7.64,13.72,13.72,0,0,0-8.79-2.78c-2.76,0-4.85.6-6.28,1.78a6.22,6.22,0,0,0-2.14,5.07c0,2.48,1.31,4.33,3.93,5.57a61.7,61.7,0,0,0,12.35,3.71,122,122,0,0,1,15,4.36,24.75,24.75,0,0,1,10.14,7.21q4.27,5,4.28,13.42A20.59,20.59,0,0,1,667.48,713a24.46,24.46,0,0,1-10.71,8.29,42,42,0,0,1-16.56,3q-16.14,0-25.84-7.14t-11.86-20.41h23.56a10.59,10.59,0,0,0,4.36,7.85,16.37,16.37,0,0,0,9.78,2.71q4.14,0,6.28-1.92a6.5,6.5,0,0,0,2.14-5.07,6.1,6.1,0,0,0-3.92-5.93,72.14,72.14,0,0,0-12.78-3.78,102.1,102.1,0,0,1-14.57-4,24,24,0,0,1-9.85-6.92q-4.14-4.78-4.14-13.07a21.28,21.28,0,0,1,8.14-17.34q8.13-6.64,23-6.64Q649.62,642.63,658.7,650.19Z"/><path class="cls-2" d="M727.16,702.31v21h-11q-14,0-21.77-6.92t-7.78-22.92V664.19H675.9V643.63h10.71V624.07H711v19.56h16v20.56H711v29.69c0,3.14.65,5.33,1.93,6.57s3.45,1.86,6.5,1.86Z"/><path class="cls-2" d="M784.12,646.77a24.86,24.86,0,0,1,9.71,11.28V643.63H818.1v79.66H793.83V708.87a24.86,24.86,0,0,1-9.71,11.28,28.75,28.75,0,0,1-15.7,4.14,32.26,32.26,0,0,1-17.63-4.92,33.66,33.66,0,0,1-12.28-14.21q-4.5-9.27-4.5-21.7t4.5-21.77a33.76,33.76,0,0,1,12.28-14.14,32.26,32.26,0,0,1,17.63-4.92A28.83,28.83,0,0,1,784.12,646.77Zm-20.49,22.41q-4.78,5.15-4.78,14.28t4.78,14.28q4.79,5.13,12.64,5.14a16.53,16.53,0,0,0,12.64-5.28q4.92-5.29,4.92-14.14,0-9-4.92-14.21A16.65,16.65,0,0,0,776.27,664Q768.43,664,763.63,669.18Z"/><path class="cls-2" d="M834,612q4-3.64,10.57-3.64c4.37,0,7.9,1.21,10.56,3.64a11.91,11.91,0,0,1,4,9.21,11.75,11.75,0,0,1-4,9.07c-2.66,2.42-6.19,3.64-10.56,3.64s-7.91-1.22-10.57-3.64a11.79,11.79,0,0,1-4-9.07A12,12,0,0,1,834,612Zm22.7,31.63v79.66H832.24V643.63Z"/><path class="cls-2" d="M907,647.05a30.1,30.1,0,0,1,15.63-4.28V668.9h-7q-9.72,0-15.07,4.14t-5.35,14v36.26H870.79V643.63H895.2v15A34.66,34.66,0,0,1,907,647.05Z"/><path class="cls-2" d="M983.36,650.19a32.86,32.86,0,0,1,11.35,20H971.87a12.72,12.72,0,0,0-4.5-7.64,13.69,13.69,0,0,0-8.78-2.78c-2.76,0-4.85.6-6.28,1.78a6.22,6.22,0,0,0-2.14,5.07c0,2.48,1.31,4.33,3.92,5.57a62.13,62.13,0,0,0,12.35,3.71,122.26,122.26,0,0,1,15,4.36,24.65,24.65,0,0,1,10.13,7.21q4.29,5,4.29,13.42A20.53,20.53,0,0,1,992.14,713a24.38,24.38,0,0,1-10.7,8.29,42.06,42.06,0,0,1-16.57,3q-16.12,0-25.84-7.14t-11.85-20.41h23.56a10.61,10.61,0,0,0,4.35,7.85,16.42,16.42,0,0,0,9.78,2.71q4.14,0,6.29-1.92a6.53,6.53,0,0,0,2.14-5.07,6.1,6.1,0,0,0-3.93-5.93,72.14,72.14,0,0,0-12.78-3.78,102.29,102.29,0,0,1-14.56-4,24,24,0,0,1-9.85-6.92Q928,674.9,928,666.61a21.28,21.28,0,0,1,8.14-17.34q8.13-6.64,23-6.64Q974.3,642.63,983.36,650.19Z"/><path class="cls-2" d="M539.29,747.4a19.16,19.16,0,0,1,6.76,11.34H535.36a9.84,9.84,0,0,0-3.63-4.55,10.2,10.2,0,0,0-5.82-1.65,8.88,8.88,0,0,0-7.15,3.24,13.14,13.14,0,0,0-2.72,8.69,13,13,0,0,0,2.72,8.65,8.89,8.89,0,0,0,7.15,3.22,10.2,10.2,0,0,0,5.82-1.65,9.93,9.93,0,0,0,3.63-4.49h10.69a19.32,19.32,0,0,1-6.76,11.31q-5.24,4.22-13.2,4.22A20.73,20.73,0,0,1,515.4,783a18.15,18.15,0,0,1-7.12-7.53,25.56,25.56,0,0,1,0-22.09,18.15,18.15,0,0,1,7.12-7.53,20.83,20.83,0,0,1,10.69-2.69Q534.05,743.2,539.29,747.4Z"/><path class="cls-2" d="M581.16,745.71a20,20,0,0,1,7.59,7.62,23.16,23.16,0,0,1,0,22.06A20.14,20.14,0,0,1,581.1,783a22,22,0,0,1-21.32,0,20.14,20.14,0,0,1-7.62-7.65,23.13,23.13,0,0,1,0-22.06,20.2,20.2,0,0,1,7.62-7.62,22.22,22.22,0,0,1,21.38,0Zm-18.6,9.87c-1.95,2.14-2.93,5.07-2.93,8.77a12.57,12.57,0,0,0,2.93,8.74,11.15,11.15,0,0,0,15.74,0c2-2.16,3-5.08,3-8.74s-1-6.58-2.92-8.74a11.23,11.23,0,0,0-15.77,0Z"/><path class="cls-2" d="M633.17,785.38h-10.1l-16.89-25.64v25.64h-10.1V743.62h10.1l16.89,25.87V743.62h10.1Z"/><path class="cls-2" d="M667.34,779.71a11.94,11.94,0,0,1-5,4.43,17.56,17.56,0,0,1-8,1.65q-7,0-11.57-3.43a12.36,12.36,0,0,1-5-9.56h10.75a5.63,5.63,0,0,0,1.68,3.72,5.19,5.19,0,0,0,3.69,1.36,4.28,4.28,0,0,0,3.07-1.07,3.71,3.71,0,0,0,1.12-2.83,3.65,3.65,0,0,0-1-2.66,8.09,8.09,0,0,0-2.57-1.74c-1-.46-2.44-1-4.25-1.63a50.54,50.54,0,0,1-6.47-2.63,11.81,11.81,0,0,1-4.31-3.78,12.3,12.3,0,0,1,.09-13,12.05,12.05,0,0,1,5.23-4.17,19.1,19.1,0,0,1,7.64-1.44q7,0,11.08,3.31a12.64,12.64,0,0,1,4.64,9.09H657.33a5.62,5.62,0,0,0-1.51-3.28,4.46,4.46,0,0,0-3.28-1.21,4.22,4.22,0,0,0-2.86,1,3.45,3.45,0,0,0-1.09,2.77,3.5,3.5,0,0,0,1,2.51A7.58,7.58,0,0,0,652,758.8c1,.43,2.4,1,4.26,1.65a46.86,46.86,0,0,1,6.55,2.69,12.44,12.44,0,0,1,4.37,3.87,11,11,0,0,1,1.83,6.61A11.54,11.54,0,0,1,667.34,779.71Z"/><path class="cls-2" d="M703.52,743.62v8H692.18v33.73H682V751.65H670.79v-8Z"/><path class="cls-2" d="M728.09,785.38l-9-15.77h-2.3v15.77h-10.1V743.62h17.24a18.64,18.64,0,0,1,8.39,1.71,11.83,11.83,0,0,1,5.14,4.7,13.44,13.44,0,0,1,1.71,6.82,12.11,12.11,0,0,1-2.51,7.74,12.85,12.85,0,0,1-7.29,4.37l9.92,16.42Zm-11.34-22.69H723a6.34,6.34,0,0,0,4.43-1.32,6.09,6.09,0,0,0,0-7.83,6.09,6.09,0,0,0-4.4-1.42h-6.26Z"/><path class="cls-2" d="M752.9,743.62v24.1a9.51,9.51,0,0,0,1.86,6.32,7.78,7.78,0,0,0,10.8,0q1.88-2.19,1.87-6.32v-24.1h10.09v24.1a19.82,19.82,0,0,1-2.3,9.95,14.91,14.91,0,0,1-6.29,6.08,19.5,19.5,0,0,1-9,2,18.85,18.85,0,0,1-8.86-2,14.3,14.3,0,0,1-6-6.08,20.88,20.88,0,0,1-2.19-10v-24.1Z"/><path class="cls-2" d="M815.42,747.4a19.2,19.2,0,0,1,6.76,11.34H811.49a9.79,9.79,0,0,0-3.64-4.55,10.15,10.15,0,0,0-5.81-1.65,8.87,8.87,0,0,0-7.15,3.24,13.14,13.14,0,0,0-2.72,8.69,13,13,0,0,0,2.72,8.65,8.88,8.88,0,0,0,7.15,3.22,10.15,10.15,0,0,0,5.81-1.65,9.89,9.89,0,0,0,3.64-4.49h10.69a19.37,19.37,0,0,1-6.76,11.31q-5.24,4.22-13.21,4.22A20.76,20.76,0,0,1,791.52,783a18.19,18.19,0,0,1-7.11-7.53,25.56,25.56,0,0,1,0-22.09,18.19,18.19,0,0,1,7.11-7.53,20.85,20.85,0,0,1,10.69-2.69Q810.19,743.2,815.42,747.4Z"/><path class="cls-2" d="M856.73,743.62v8H845.39v33.73H835.23V751.65H824v-8Z"/><path class="cls-2" d="M870,743.62v41.76h-10.1V743.62Z"/><path class="cls-2" d="M906.37,745.71a20,20,0,0,1,7.59,7.62,23.16,23.16,0,0,1,0,22.06,20.14,20.14,0,0,1-7.62,7.65A22,22,0,0,1,885,783a20.14,20.14,0,0,1-7.62-7.65,23.13,23.13,0,0,1,0-22.06,20.2,20.2,0,0,1,7.62-7.62,22.22,22.22,0,0,1,21.38,0Zm-18.6,9.87c-1.95,2.14-2.93,5.07-2.93,8.77a12.57,12.57,0,0,0,2.93,8.74,11.15,11.15,0,0,0,15.74,0c2-2.16,3-5.08,3-8.74s-1-6.58-2.92-8.74a11.23,11.23,0,0,0-15.77,0Z"/><path class="cls-2" d="M958.38,785.38h-10.1l-16.89-25.64v25.64h-10.1V743.62h10.1l16.89,25.87V743.62h10.1Z"/><path class="cls-2" d="M992.55,779.71a11.94,11.94,0,0,1-5,4.43,17.56,17.56,0,0,1-8,1.65q-7,0-11.57-3.43a12.39,12.39,0,0,1-5-9.56h10.75a5.68,5.68,0,0,0,1.69,3.72,5.19,5.19,0,0,0,3.69,1.36,4.28,4.28,0,0,0,3.07-1.07,3.71,3.71,0,0,0,1.12-2.83,3.65,3.65,0,0,0-1-2.66,8.09,8.09,0,0,0-2.57-1.74c-1-.46-2.44-1-4.25-1.63a50.54,50.54,0,0,1-6.47-2.63,11.81,11.81,0,0,1-4.31-3.78,12.3,12.3,0,0,1,.09-13,12.08,12.08,0,0,1,5.22-4.17,19.19,19.19,0,0,1,7.65-1.44q7,0,11.08,3.31a12.64,12.64,0,0,1,4.64,9.09H982.54a5.62,5.62,0,0,0-1.51-3.28,4.46,4.46,0,0,0-3.28-1.21,4.22,4.22,0,0,0-2.86,1,3.45,3.45,0,0,0-1.09,2.77,3.5,3.5,0,0,0,1,2.51,7.58,7.58,0,0,0,2.45,1.69c1,.43,2.4,1,4.26,1.65a46.86,46.86,0,0,1,6.55,2.69A12.44,12.44,0,0,1,992.4,767a11,11,0,0,1,1.83,6.61A11.54,11.54,0,0,1,992.55,779.71Z"/></svg>