<svg id="Layer_1" data-name="Layer 1" xmlns="http://www.w3.org/2000/svg" xmlns:xlink="http://www.w3.org/1999/xlink" viewBox="0 0 1500 1000"><defs><style>.cls-1{fill:#fefe9c;}.cls-2{fill:url(#linear-gradient);}.cls-3{fill:#ff4900;}.cls-4{fill:#fff;}.cls-5{fill:#d6d1ce;}.cls-6{fill:url(#linear-gradient-2);}</style><linearGradient id="linear-gradient" x1="499.26" y1="405.09" x2="632.95" y2="447.06" gradientUnits="userSpaceOnUse"><stop offset="0.07" stop-color="#fddb00"/><stop offset="1" stop-color="#ff5700"/></linearGradient><linearGradient id="linear-gradient-2" x1="541.66" y1="315.11" x2="802.81" y2="298.01" xlink:href="#linear-gradient"/></defs><rect class="cls-1" width="1500" height="1000"/><path class="cls-2" d="M696.15,469.5c-16.39,13.21-33.21,25.87-53,35.22-23.84,11.27-47.4,16-71,12.39-16-2.44-29.11-8.12-39.83-17.09-9.42-7.89-15.89-17-19.19-27.46a120.18,120.18,0,0,1,1.37-14.07c3.81-24.63,15.54-47.92,34.82-69.85,14-15.9,31.22-29.22,50.83-40.37.89-.51,1.81-1.26,3.23-.84-.61,1.67-2.45,2.69-3.84,3.84-21.23,17.81-33.8,38.08-36.95,60.31-3.13,22,4.29,40,21,54,10.72,9,23.8,14.65,39.82,17.08,23.63,3.6,47.2-1.1,71-12.37Z"/><path class="cls-3" d="M978.58,449.81c-1.92,4-4,8-6.12,11.94-.55,1.06-1,2.44-2.57,2.72-1.36.24-1.66-1-2.17-1.7A23.92,23.92,0,0,0,960,455c-7.07-4.1-15.36-4.36-24.37-2.46-1.45.3-2.91.67-4.38,1.08-13.71,3.8-26,10.65-37.62,18.34-7.21,4.76-14,10-21,15-.85.62-2.62,1.28-1.86,2.38.53.78,1.91,0,2.92-.22,1.94-.42,3.84-.76,5.69-1,8.23-1,15.41.22,20.84,5.05.89.79,2.33,1.58,1.51,2.89s-2.4.47-3.6.5a33.66,33.66,0,0,0-15.42,4,275.47,275.47,0,0,0-27.57,17.24c-3.37,2.37-6.73,4.72-10.13,7a519.22,519.22,0,0,1-47.52,29.45c-30.79,16.56-62.84,29.4-96.72,35.19q-38.67,6.63-73.63-.74A160.91,160.91,0,0,1,576.26,569c-28.32-17.34-49.82-39.44-59.6-69a78,78,0,0,1-3.54-27.42c3.3,10.42,9.77,19.57,19.19,27.46,10.72,9,23.81,14.65,39.83,17.09,23.63,3.58,47.19-1.12,71-12.39,19.77-9.35,36.59-22,53-35.22,19.2-9.33,35.64-21.79,51.69-34.72,17-13.69,32.81-28.3,49.74-42,4.67-3.8,9.44-7.53,14.33-11.14,17.85-13.23,36.74-25.14,58.55-32a105.4,105.4,0,0,1,45.11-4.43c.67.09,1.26.35,3.16.89-15.58,3.48-29.09,8.23-40,18.52,6.77-1.4,13.43-2.77,20.11-3.67,20.93-2.77,39.3,0,55.43,7.54,17.5,8.12,28.27,20.88,31.66,38.05C988.7,420.44,985.64,435,978.58,449.81Z"/><path class="cls-4" d="M971,443.5c-1.86,4.32-2.06,4.29-5.79,2.15a24.93,24.93,0,0,0-5.93-2.4A74.38,74.38,0,0,0,934.39,427c-26.69-10.43-51.69-1.69-66.66,3.79-54.15,19.8-58.78,59.17-112.1,87.86-17.91,9.64-40.83,17.81-70.12,20.59-2.35-.25-4.7-.56-7-.88,44.39-16.16,74.33-45.34,101.41-77.46-27,19.19-55.19,29.42-85.67,24.57-.07-1.78,1-2,1.83-2.35,24.79-11.29,45.45-27.13,64.86-44.36,18.37-16.3,35.83-33.28,55.34-48.74,14.57-11.53,30.06-21.83,47.81-29.13,1.09-.46,2.19-1.23,3.85-.59-6.18,4.73-11.88,9.59-17.36,14.62-4.62,4.23-7.87,9-11.38,13.69-.66.87-1.84,2-1,2.72s2.2-.5,3.2-1.05c13.79-7.68,28.26-13.43,43.5-15.9,28.06-4.55,53.23-2.33,72.57,11C977.71,399.37,981.56,419.2,971,443.5Z"/><path class="cls-5" d="M959.3,443.25c-7.72-2.11-16.6-1-25.56.76-19.93,3.84-37.32,13.34-53.54,25-17.55,12.58-32,27.24-44.91,42.83a8.72,8.72,0,0,0-.74,1.6c11.66-5.6,22.35-12.64,35-13.59.27,1.33-1.09,1.62-1.89,2.1-15.92,9.41-30.55,20.39-46.26,30.06-17.51,10.79-35.34,21-55.94,24.56-3.1.54-7.38,1.8-8.56-.21-1-1.72,3.3-3.52,5.26-5.22,10.63-9.2,18.82-19.58,26.73-30.12a11.9,11.9,0,0,0,1.07-1.77c.09-.19-.06-.43-.2-1.28-35.05,22.15-69.65,25.17-104.21,21.26,29.29-2.78,52.21-11,70.12-20.59,53.32-28.69,58-68.06,112.1-87.86,15-5.48,40-14.22,66.66-3.79A74.38,74.38,0,0,1,959.3,443.25Z"/><path class="cls-6" d="M782,271.32a396.84,396.84,0,0,0-30.31-56l-1.39-.06A277.2,277.2,0,0,0,606,248q.1,25,1.16,51.3c1.35,33,3.78,64.56,7,94.44a295.86,295.86,0,0,0,79.79-2.07,274.24,274.24,0,0,0,112.58-45.73A397.46,397.46,0,0,0,782,271.32ZM677,244c-5.41,2.71-10.87,5.25-16.38,7.67s-11.06,4.7-16.66,6.85c-3.94,1.56-7.93,3-11.92,4.43.39,11.31.41,22.64-.1,34-.27,6.53-.7,13.06-1.37,19.6-.33,3.28-.72,6.55-1.19,9.83s-1,6.55-1.68,9.83c-.94-3.23-1.71-6.45-2.4-9.69s-1.33-6.47-1.9-9.71c-1.14-6.47-2-13-2.79-19.45-1.54-13-2.38-26-2.76-39l-.15-5.29,4.91-1.6c5.7-1.87,11.43-3.65,17.2-5.28s11.57-3.18,17.4-4.61,11.75-2.69,17.7-3.8,11.93-2.07,18.08-2.61C687.78,238.46,682.42,241.29,677,244Z"/><path class="cls-3" d="M329.83,757H309.29v26.88H287v-96.5h41.77q12.81,0,22.26,4.28a33.09,33.09,0,0,1,14.54,12.13,33.42,33.42,0,0,1,5.1,18.61,31.43,31.43,0,0,1-19.85,30.46l21.64,31h-24Zm-2.34-51.42h-18.2v33.63h18.2q10.06,0,15.3-4.41t5.24-12.4c0-5.43-1.75-9.58-5.24-12.48S334.2,705.61,327.49,705.61Z"/><path class="cls-3" d="M400,752.89a17.49,17.49,0,0,0,7.16,10.89q5.65,4,14.06,4a28.42,28.42,0,0,0,10.27-1.73,24.68,24.68,0,0,0,8.34-5.44L451.29,773q-10.49,12-30.61,12a48.3,48.3,0,0,1-22.19-4.9,35.91,35.91,0,0,1-14.89-13.57,37.43,37.43,0,0,1-5.24-19.71,38,38,0,0,1,5.17-19.65,36.24,36.24,0,0,1,14.2-13.64,43.93,43.93,0,0,1,39.91-.21,34.12,34.12,0,0,1,13.85,13.44,40,40,0,0,1,5,20.33c0,.28-.13,2.21-.41,5.79Zm-.28-12.54h36.53a17.8,17.8,0,0,0-6.07-11.24,18.12,18.12,0,0,0-12.13-4.2A18.52,18.52,0,0,0,405.8,729,17.64,17.64,0,0,0,399.73,740.35Z"/><path class="cls-3" d="M543.47,783.91H522.93v-8.55q-8,9.64-23.16,9.65a38.45,38.45,0,0,1-18.95-4.69A33.49,33.49,0,0,1,467.52,767a44.34,44.34,0,0,1,0-40.25,33.49,33.49,0,0,1,13.3-13.37,38.45,38.45,0,0,1,18.95-4.69q14.21,0,22.2,9v-36h21.5Zm-21.09-37.08q0-9.37-5.38-15a19.3,19.3,0,0,0-27.15,0q-5.39,5.58-5.38,15t5.38,14.95a19.3,19.3,0,0,0,27.15,0Q522.39,756.2,522.38,746.83Z"/><path class="cls-3" d="M584.22,730.83h44.66v17.92H584.22v35.16H561.89v-96.5h72.92v17.92H584.22Z"/><path class="cls-3" d="M643.25,766.54a39.71,39.71,0,0,1,0-39.43,36.34,36.34,0,0,1,14.54-13.57,47.39,47.39,0,0,1,42,0,36.44,36.44,0,0,1,14.48,13.57,39.71,39.71,0,0,1,0,39.43,36.44,36.44,0,0,1-14.48,13.57,47.39,47.39,0,0,1-42,0A36.34,36.34,0,0,1,643.25,766.54Zm54.45-19.71q0-9.37-5.31-15a17.91,17.91,0,0,0-13.58-5.58,18.12,18.12,0,0,0-13.64,5.58q-5.38,5.58-5.38,15t5.38,14.95a18.12,18.12,0,0,0,13.64,5.58,17.91,17.91,0,0,0,13.58-5.58Q697.7,756.2,697.7,746.83Z"/><path class="cls-3" d="M759.35,761.16l-16.81,22.75H719.1l28.54-37.36-27.57-36.81h24.12l15.71,21.65L776,709.74h22.88L771.35,746,800,783.91h-24.4Z"/><path class="cls-3" d="M867.54,730.83H912.2v17.92H867.54v35.16H845.21v-96.5h72.92v17.92H867.54Z"/><path class="cls-3" d="M924.82,687.41a11.13,11.13,0,0,1,3.73-8.54,13.61,13.61,0,0,1,9.64-3.45,14,14,0,0,1,9.65,3.31,10.59,10.59,0,0,1,3.73,8.27,11.68,11.68,0,0,1-3.73,8.89,15.09,15.09,0,0,1-19.29.07A11.17,11.17,0,0,1,924.82,687.41ZM949,709.74v74.17H927.44V709.74Z"/><path class="cls-3" d="M966,759.37V681.62h21.5v76.51c0,3.12.8,5.54,2.41,7.24a9,9,0,0,0,6.83,2.55,14.2,14.2,0,0,0,3.37-.42,10.52,10.52,0,0,0,2.69-1l1,16.68A35.26,35.26,0,0,1,992.55,785Q980,785,973,778.32T966,759.37Z"/><path class="cls-3" d="M1136.64,741.45v42.46h-21.5V744.76q0-8.82-3.65-13.17t-10.41-4.34q-7.59,0-12,4.89t-4.41,14.55v37.22h-21.51V744.76q0-17.5-14.06-17.51-7.44,0-11.85,4.89t-4.41,14.55v37.22h-21.51V709.74h20.54v8.55a27.26,27.26,0,0,1,10.13-7.17,34.21,34.21,0,0,1,13.17-2.48,32,32,0,0,1,14.19,3.1,25.23,25.23,0,0,1,10.21,9,30.39,30.39,0,0,1,11.51-9,36.34,36.34,0,0,1,15.23-3.17q13.92,0,22.12,8.2T1136.64,741.45Z"/><path class="cls-3" d="M1145.91,777l7.17-15.44a44.79,44.79,0,0,0,12,5.17,50,50,0,0,0,13.78,2q13.65,0,13.65-6.75c0-2.12-1.24-3.63-3.72-4.55a54.94,54.94,0,0,0-11.44-2.34,111.13,111.13,0,0,1-15-3.17,23.42,23.42,0,0,1-10.27-6.34q-4.33-4.56-4.34-13a20.31,20.31,0,0,1,4.07-12.48,26.23,26.23,0,0,1,11.85-8.48,50.67,50.67,0,0,1,18.4-3,72.78,72.78,0,0,1,15.65,1.72,43.85,43.85,0,0,1,12.89,4.76l-7.17,15.3a42.85,42.85,0,0,0-21.37-5.51q-6.88,0-10.33,1.93c-2.3,1.28-3.45,2.94-3.45,5q0,3.45,3.72,4.82a65.26,65.26,0,0,0,11.86,2.62,126.53,126.53,0,0,1,14.88,3.24,22.42,22.42,0,0,1,10.07,6.27c2.85,3,4.27,7.26,4.27,12.69a19.65,19.65,0,0,1-4.13,12.27q-4.14,5.37-12.07,8.33a53.58,53.58,0,0,1-18.81,3,71.87,71.87,0,0,1-18.06-2.28A46.94,46.94,0,0,1,1145.91,777Z"/></svg>