<svg id="Layer_1" data-name="Layer 1" xmlns="http://www.w3.org/2000/svg" xmlns:xlink="http://www.w3.org/1999/xlink" viewBox="0 0 1500 1000"><defs><style>.cls-1{fill:#fefecc;}.cls-2{fill:url(#linear-gradient);}.cls-3{fill:url(#linear-gradient-2);}.cls-4{fill:#1a1a1a;}</style><linearGradient id="linear-gradient" x1="887.24" y1="900.79" x2="830.89" y2="178.43" gradientUnits="userSpaceOnUse"><stop offset="0" stop-color="#fe4320"/><stop offset="0.51" stop-color="#fe610e"/><stop offset="1" stop-color="#ffd400"/></linearGradient><linearGradient id="linear-gradient-2" x1="735.85" y1="808.46" x2="689.92" y2="219.81" xlink:href="#linear-gradient"/></defs><rect class="cls-1" width="1500" height="1000"/><path class="cls-2" d="M877.55,246.6a218.11,218.11,0,0,0-37.78-30.23,213.81,213.81,0,0,0-31-16.2l.12,34.34a185.84,185.84,0,0,1,101,165c0,74.47-44.18,138.82-107.71,168.2a183.93,183.93,0,0,1-31,11.09v31.89a211.82,211.82,0,0,0,31-9.25A216.29,216.29,0,0,0,877.55,246.6Z"/><path class="cls-3" d="M802.18,545.72V509.43a133.93,133.93,0,0,1-77.5,24.6c-74.21,0-134.57-60.37-134.57-134.57s60.36-134.58,134.57-134.58a133.9,133.9,0,0,1,84.38,29.81c1.29,1,2.54,2.12,3.79,3.21-1.25-1.09-2.5-2.16-3.79-3.2l.46,137.3h-43.1c0-2.21-.12-4.44-.34-6.71A62.4,62.4,0,0,0,758,399.87a54.93,54.93,0,0,0-3.94-5.81,49.31,49.31,0,0,0-4.67-5.38,58,58,0,0,0-5.34-4.72c-.93-.73-1.88-1.38-2.82-2.06s-1.92-1.26-2.87-1.81a78.42,78.42,0,0,0-11-5.41c-1.71-.71-3.32-1.3-4.85-1.88l-4.26-1.6c-1.33-.52-2.51-1-3.65-1.5s-2.1-1-3.06-1.48a24.38,24.38,0,0,1-5-3.48,27.18,27.18,0,0,1-4.22-4.85,37,37,0,0,1-3.55-6.49,83.83,83.83,0,0,1-4.93-17.08c-.31-1.58-.63-3.2-.89-4.83s-.55-3.31-.82-5c-.55-3.39-1-6.87-1.74-10.5a59,59,0,0,0-6.13,9A66.55,66.55,0,0,0,679.7,335,58.88,58.88,0,0,0,676,357.73a48.56,48.56,0,0,0,2.22,12.62,45.45,45.45,0,0,0,6,12.26,50.21,50.21,0,0,0,4.42,5.48,55.62,55.62,0,0,0,5.1,4.76,73.06,73.06,0,0,0,10.6,7c1.67.93,3.3,1.79,4.81,2.58l4.27,2.24a57.46,57.46,0,0,1,6.62,4,28,28,0,0,1,4.47,4,28.62,28.62,0,0,1,3.41,4.75,38.13,38.13,0,0,1,4.38,12.33,96.92,96.92,0,0,1,1.41,15.86l-2,17.34H840.6l-.05-15.54-.39-117c-2.15-3.58-4.48-7.05-6.94-10.41,2.46,3.36,4.79,6.82,6.94,10.4L840,280.78A166.67,166.67,0,0,0,808.93,257a164.54,164.54,0,0,0-84.25-23.09c-91.28,0-165.54,74.26-165.54,165.55S633.4,565,724.68,565a164.45,164.45,0,0,0,77.5-19.28Z"/><path class="cls-4" d="M606.35,730h-2a7.1,7.1,0,0,0-4.84,1.5,5.55,5.55,0,0,0-1.69,4.38v21.58q-5.11,6.66-16.87,11.77a65.84,65.84,0,0,1-26.42,5.1q-22.37,0-35.89-12.88t-13.54-34.79q0-21.9,13.54-34.72t36.68-12.81a99.87,99.87,0,0,1,20.26,2,66,66,0,0,1,15.83,5l.26,22.49h-1.18q-3.4-12.67-11.64-18.37t-19.61-5.69q-15.82,0-24.32,11.31t-8.5,31q0,19.7,7.78,30.8t22,11.12q10.34,0,17.26-5.89a17.9,17.9,0,0,0,5-7.06v-20a5.46,5.46,0,0,0-1.76-4.38,7.58,7.58,0,0,0-5-1.5h-2.09v-1.31h36.74Z"/><path class="cls-4" d="M612.5,771.19a7.94,7.94,0,0,0,5.82-2.42,8.43,8.43,0,0,0,2.55-5.82V690.51a8.43,8.43,0,0,0-2.55-5.82,7.94,7.94,0,0,0-5.82-2.42h-1.7V681h39.75l-.13,1.31h-1.57a8.15,8.15,0,0,0-5.88,2.42,7.8,7.8,0,0,0-2.48,5.82v76.36h17.13q9.54,0,16-5.49t9.62-15.56h1.3l-6,26.68H610.8v-1.31Z"/><path class="cls-4" d="M729.4,714a22.12,22.12,0,0,1-2.35-9.48,28.46,28.46,0,0,1,1.18-8.37,25.07,25.07,0,0,1,3.92-7.58,21,21,0,0,1,7.72-6.21,35.1,35.1,0,0,1,16.34-3.53,47.37,47.37,0,0,1,23.8,6.41q14.78,8.37,20.53,23.14a46.06,46.06,0,0,1,3.27,17.39q0,21.84-15.76,35.18T747,774.33q-25.31,0-41.19-13.34t-15.89-35q0-16.2,9.22-28.18T724,681.48l.79,1.18q-6.68,5.63-10.07,16.48a77.73,77.73,0,0,0-3.4,23.4q0,21.19,9.81,33.74a31,31,0,0,0,25.69,12.56q15.89,0,25.63-11.84t9.74-31.32a59.72,59.72,0,0,0-3.59-21.25q-3.6-9.48-10.4-14.64a24.43,24.43,0,0,0-15.17-5.17q-9.29,0-15,4.84a22.21,22.21,0,0,0-8.1,17.65,27.5,27.5,0,0,0,.91,6.93Z"/><path class="cls-4" d="M947.91,794.73a47.86,47.86,0,0,1-21.7,5.1,52.59,52.59,0,0,1-18.57-3.14q-18-6.68-30.73-26-3.27-4.71-12.16-18t-11.51-17q-4.57-7.18-7.32-7.85v-1.3h2.61a25.58,25.58,0,0,0,12.29-3q8.5-4.71,8.5-17.39,0-9.29-5.23-14.32a17.45,17.45,0,0,0-12.55-5H841.6V763a7.81,7.81,0,0,0,2.49,5.82,8.14,8.14,0,0,0,5.88,2.42h1.7v1.31H811.92v-1.31h1.7a8.5,8.5,0,0,0,8.37-8.11V690.51a8.43,8.43,0,0,0-2.55-5.82,8,8,0,0,0-5.82-2.42h-1.7V681h44.85q16.88,0,26.15,7.72,7.32,6,7.33,17t-7.13,17.84a22.82,22.82,0,0,1-16.28,6.87,11.69,11.69,0,0,1-1.7-.13,39.06,39.06,0,0,1,9,6.41q3.58,3.52,6.27,6.67c1.79,2.09,3.31,3.94,4.58,5.55s2.94,3.75,5,6.41,4.27,5.43,6.54,8.3,4.78,5.82,7.52,8.83a83.38,83.38,0,0,0,9.15,8.57,57.75,57.75,0,0,0,10.27,6.67,54.75,54.75,0,0,0,24.45,5.75Z"/><path class="cls-4" d="M994.86,682.27H993a13.8,13.8,0,0,0-7.46,2.22,18.41,18.41,0,0,0-5.62,5.36l-25.76,41.06v32a7.84,7.84,0,0,0,2.48,5.82,8.18,8.18,0,0,0,5.89,2.42h1.57l.13,1.31H924.51v-1.31h1.7a8.06,8.06,0,0,0,5.81-2.35,8.19,8.19,0,0,0,2.56-5.76v-32.3l-25-41.06a16.18,16.18,0,0,0-5.56-5.29,14.18,14.18,0,0,0-7.39-2.16h-1.83V681h43.29v1.31h-1.7a4.93,4.93,0,0,0-4.45,2.61,5.66,5.66,0,0,0-.13,5.5l18.7,34,19.35-34a5.19,5.19,0,0,0,.79-2.68,4.67,4.67,0,0,0-.92-2.69,4.89,4.89,0,0,0-4.45-2.74h-1.56V681h31.12Z"/></svg>