<svg id="Layer_1" data-name="Layer 1" xmlns="http://www.w3.org/2000/svg" xmlns:xlink="http://www.w3.org/1999/xlink" viewBox="0 0 1500 1000"><defs><style>.cls-1{fill:#231f20;}.cls-2{fill:url(#linear-gradient);}.cls-3{fill:url(#linear-gradient-2);}.cls-4{fill:url(#linear-gradient-3);}.cls-5{fill:url(#linear-gradient-4);}.cls-6{fill:url(#linear-gradient-5);}.cls-7{fill:url(#linear-gradient-6);}.cls-8{fill:url(#linear-gradient-7);}.cls-9{fill:url(#linear-gradient-8);}.cls-10{fill:url(#linear-gradient-9);}.cls-11{fill:url(#linear-gradient-10);}.cls-12{fill:url(#linear-gradient-11);}.cls-13{fill:url(#linear-gradient-12);}.cls-14{fill:url(#linear-gradient-13);}.cls-15{fill:url(#linear-gradient-14);}</style><linearGradient id="linear-gradient" x1="-11368.01" y1="-2702.06" x2="1597.84" y2="809.53" gradientUnits="userSpaceOnUse"><stop offset="0" stop-color="#fcb913"/><stop offset="0.23" stop-color="#fcc909"/><stop offset="0.4" stop-color="#fcd700"/><stop offset="0.54" stop-color="#fdde00"/><stop offset="0.97" stop-color="#fcda00"/><stop offset="1" stop-color="#fcbd12"/></linearGradient><linearGradient id="linear-gradient-2" x1="-4647.57" y1="-1058.84" x2="1403.18" y2="579.91" xlink:href="#linear-gradient"/><linearGradient id="linear-gradient-3" x1="-978.43" y1="-34.58" x2="1215.15" y2="559.51" xlink:href="#linear-gradient"/><linearGradient id="linear-gradient-4" x1="188.44" y1="231.9" x2="1094.96" y2="477.42" xlink:href="#linear-gradient"/><linearGradient id="linear-gradient-5" x1="-3371.51" y1="-717.22" x2="1568.41" y2="620.68" xlink:href="#linear-gradient"/><linearGradient id="linear-gradient-6" x1="-395.31" y1="329.59" x2="700.03" y2="626.24" xlink:href="#linear-gradient"/><linearGradient id="linear-gradient-7" x1="-402.32" y1="306.43" x2="788" y2="628.81" xlink:href="#linear-gradient"/><linearGradient id="linear-gradient-8" x1="-86.27" y1="370.37" x2="846.83" y2="623.08" xlink:href="#linear-gradient"/><linearGradient id="linear-gradient-9" x1="-449.81" y1="249.56" x2="969.6" y2="633.98" xlink:href="#linear-gradient"/><linearGradient id="linear-gradient-10" x1="-33.26" y1="339.19" x2="1025.61" y2="625.96" xlink:href="#linear-gradient"/><linearGradient id="linear-gradient-11" x1="186.15" y1="377.01" x2="1079.53" y2="618.97" xlink:href="#linear-gradient"/><linearGradient id="linear-gradient-12" x1="724.73" y1="507.96" x2="1103.48" y2="610.54" xlink:href="#linear-gradient"/><linearGradient id="linear-gradient-13" x1="136.36" y1="329.59" x2="1231.69" y2="626.24" xlink:href="#linear-gradient"/><linearGradient id="linear-gradient-14" x1="359.66" y1="370.37" x2="1292.78" y2="623.09" xlink:href="#linear-gradient"/></defs><rect class="cls-1" width="1500" height="1000"/><path class="cls-2" d="M760.05,488.71c.33-2,.65-4.73-1.3-5.75-4.55-3.38-11.37-2-16.57-1-2.6.68-5.53,1-8.46,1.69-1.62.34-2.92.68-4.55,1h-1.62c3.57-5.74,6.82-12.17,8.12-18.93,1-4.06,1.63-9.81-2.27-12.51-5.53-4.06-13.33-1.7-18.53,2.36-2.6,1.69-4.55,4.4-6.5,6.77a23.71,23.71,0,0,0-4.55,9.13c-1.3,5.74,0,11.83,4.87,15.21a19.76,19.76,0,0,0,8.46,3.05c-1.58,2.46-3.17,4.8-4.89,7.09a13.74,13.74,0,0,0-1.29-.67c-1.3-.34-3.9-.34-5.2,1-6.18,7.44-13,14.88-20.8,21a60.92,60.92,0,0,1-9.43,6.77,41.61,41.61,0,0,1-8.78,4.05,52.92,52.92,0,0,1-7.15,1.36H659a1.1,1.1,0,0,1-.65-.34H656c-.32,0-.65-.34-1-.34a4.48,4.48,0,0,1-1.95-.68h-.33a1.17,1.17,0,0,0-1-.33l-1.95-1a14.53,14.53,0,0,1-2.93-2.37,25,25,0,0,1-6.17-7.1,19.2,19.2,0,0,1-2.61-10.48c1.63,1.69,4.88,2.37,7.48,2.71a14.83,14.83,0,0,0,8.45-2.71,19.57,19.57,0,0,0,9.11-13.53c1-5.41-2.28-9.8-7.48-11.16-6.5-1.69-13.65,1.36-18.21,6.09a30.69,30.69,0,0,0-7.8,18.6,21.38,21.38,0,0,0,.14,3.41,10.74,10.74,0,0,0-2.74-.37c-13.32.34-26.65.68-39.65,1.69-6.51.34-13,.68-19.51,1.36-2.27.34-4.55.34-6.5.67a43.82,43.82,0,0,0-9.1-5.41c-10.73-5.07-22.11-7.1-33.48-8.45-28.29-3.72-57.22-3.05-85.82-3.05-7.16,0-14.31-.33-21.78-.33a5.33,5.33,0,0,1-2.28-.34h-6.83c-3.25-.34-6.5-.34-10.07-.68a186.94,186.94,0,0,1-18.86-2,21.27,21.27,0,0,1-4.22-.67h-.65a5.33,5.33,0,0,0-2.28-.34l-7.8-2c-1.3-.34-2.28-.68-3.58-1-.32,0-.65-.34-1-.34a4.48,4.48,0,0,1-1.3-.68,50.18,50.18,0,0,1-6.18-2.7,1.66,1.66,0,0,0-1.3-.68c0-.34,0-.34-.32-.34-1-.68-1.63-1.35-2.6-2a8.65,8.65,0,0,1-1.95-1.69c-.33-.34-.65-.68-1-1a1.21,1.21,0,0,1-.32-.68,12.76,12.76,0,0,1-2.93-4.4,4.83,4.83,0,0,1-.65-2c0-.34-.33-1-.33-1.36a2.12,2.12,0,0,1-.32-1.35,40.41,40.41,0,0,1,.32-12.51c0,.34.33-.68.33-1,0-.67.32-1,.32-1.69a12.1,12.1,0,0,1,1.31-3,22.56,22.56,0,0,1,2.92-6.43c1.3-2.36,2.6-4.39,3.9-6.42a35.74,35.74,0,0,1,4.55-5.75,109.27,109.27,0,0,1,12.36-12.51c5.2-4.4,10.4-8.46,14.95-11.84a328.48,328.48,0,0,1,39.33-22.32c7.48-3.38,14.31-6.42,22.43-9.47q12.19-5.07,24.38-9.13a465.41,465.41,0,0,1,105-22c33.48-3,67-2,99.15,6.77a110.75,110.75,0,0,1,15.93,5.07,7.34,7.34,0,0,0,6.5,0c1.62-1,1.62-2.71,0-3.38C657,343,622.88,339.58,589.72,340.6c-36.73.67-73.14,6.76-108.9,16.23-32.83,8.79-65.34,20.63-95.24,37.2a250.16,250.16,0,0,0-35.11,24c-8.78,7.1-16.91,15.55-22.76,25.7-4.55,7.77-7.47,16.9-6.82,26,.65,8.45,5.85,15.21,12.67,19.61,9.43,6.09,20.16,8.79,30.89,10.82,12.67,2.37,25.35,3,38.35,3.38,15,.68,29.91.68,44.86,1h22.11c3.58,0,7.15,0,10.73.33h3.57a30.21,30.21,0,0,1,5.53.34c6.83.34,13.33.68,19.83,1.36,3.25.33,6.18.67,9.43,1,1.3.34,2.6.34,4.22.68a1,1,0,0,1,.65.33A5.33,5.33,0,0,1,526,509a67.86,67.86,0,0,1,7.8,2c1.3.34,2.6.68,3.57,1a1.18,1.18,0,0,1,1,.33c.33,0,1.3.34,1.63.34,2,1,4.22,2,6.17,3h.33q-36.09,4.05-71.19,11.15c-41.61,8.12-82.9,18.94-122.88,34.16-28,10.48-56.56,23.33-80.62,41.93-7.48,5.75-14.63,12.51-19.83,21-3.25,5.75-5.53,12.85-3.9,19.27a17.82,17.82,0,0,0,10.73,12.52c6.82,2.7,14.3,3.38,21.78,3.72,21.78.67,43.88-2.71,65.34-6.77a650.55,650.55,0,0,0,80.29-20.63,586.33,586.33,0,0,0,77.37-30.77c19.18-9.47,39-20.63,54.28-36.18,10.08-10.48,18.53-24.69,12.36-39.57a20.38,20.38,0,0,0-2.93-5.07c14.63-1.69,29.26-2.71,43.89-3.72,5.52-.34,10.72-.68,15.92-1a9,9,0,0,0,3.57-.77,29.62,29.62,0,0,0,7.16,11.59c9.75,9.47,24.06,9.8,36.08,5.07,13.33-5.09,24.37-15.16,33.53-26.63a5.91,5.91,0,0,0,.6.25,4.16,4.16,0,0,0,3.9-.67,103.71,103.71,0,0,0,12.36-14.54c1.3,0,2.6-.34,3.57-.34,6.18-.68,12-2.37,17.88-3.38a2.37,2.37,0,0,0,1.63-.34H751v1.69a3.18,3.18,0,0,0-.32,1.69c0,.34-.33.68-.33,1v.68c-2.27,9.47-5.85,18.6-8.77,27.73a362.49,362.49,0,0,0-11.06,36.52c-2.6,11.16-5.2,23.34-3.25,34.83a26.36,26.36,0,0,0,1.63,5.41,16.85,16.85,0,0,0,1,2.37,9.07,9.07,0,0,1,1.63,2c1,2.37,7.47,1.35,6.5-1a8.54,8.54,0,0,1-.33-3v-3.38c0-2.37-.65-5.07-.65-7.44a103.31,103.31,0,0,1,1.3-17.25c1.63-12.51,4.88-24.68,8.78-36.86,2.93-10.48,6.5-21.3,10.08-31.78C758.1,495.81,759.4,492.09,760.05,488.71ZM640.1,498.52a26.55,26.55,0,0,1,5.21-8.12,17.79,17.79,0,0,1,2.92-2.36,7.76,7.76,0,0,0,1.52-.93c.12.05,1.68-.43,1.41-.43h1a1.1,1.1,0,0,1,.65.34h.65c-.32,0,.33.34.33.34.32.34.32.68.65.68,1.3,1.35,1.62,3.72,1.3,5.75-.33,4.73-3.58,9.8-7.48,11.83-.32.34-.65.34-.65.68-.32,0-1,.34-1.3.34H645a3.24,3.24,0,0,1-1.62-1.36c-.33-.34-.33-1.35-1-1.69-.32-.34-.65-.34-1-.67.32,0-.65-.34-.65-.34,0-.34-.66-.34-1,0a1.18,1.18,0,0,0-1,.34C639.13,501.22,639.78,499.87,640.1,498.52Zm-80.94,41.26c-.32.67-.32,1.35-.65,2v.34c0,.68-.32,1-.32,1.36a36.15,36.15,0,0,1-4.55,9.46,14.48,14.48,0,0,0-1.3,2.37.71.71,0,0,0-.65.68l-1,1c-1.3,1.69-2.6,3.05-3.9,4.74-3.25,3-6.82,6.08-10.08,9.13l-2.92,2c-.65.33-1,1-1.3,1.35-.33,0-1.3.67-1.63.67a40.75,40.75,0,0,1-6.17,4.4c-4.55,3-9.43,6.09-14.31,8.79-5.52,3-11,6.09-16.57,8.8-2.93,1.35-5.53,2.7-8.46,4.05-1.62.68-2.92,1.36-4.55,2-.32.34-1,.34-1.62.68-.33,0-.33.34-.65.34a2.44,2.44,0,0,0-1.3.67c-12.68,5.41-25.68,10.49-38.69,14.88-13.33,4.74-26.65,9.13-40.31,13.19-3.25,1-6.82,1.69-10.07,2.71-1.63.33-3.25,1-4.88,1.35a5.9,5.9,0,0,0-2.27.67h-.66a3.19,3.19,0,0,0-1,.34c-6.5,1.69-13.33,3.39-19.83,4.74-12,2.7-24.38,5.07-36.73,6.76a70.85,70.85,0,0,1-8.46,1.35c-1.3,0-2.6.34-3.9.34-.65,0-1.3.34-2,.34h-.65a105.65,105.65,0,0,1-14.62,1,46,46,0,0,1-6.83.34h-3.25c-.33,0-.65-.34-1.3-.34a33,33,0,0,1-5.53-.33,6,6,0,0,1-2.27-.34h-1c-1.3-.34-2.93-.68-4.23-1,0-.33-.32-.33-.65-.33-.32-.34-1-.34-1.62-.68a1.14,1.14,0,0,0-.65-.34c-.33-.34-.65-.67-1-.67l-1-1-.33-.34-1.95-4.06v-.67c-.32,0-.32-.34-.32-.68,0-.67-.33-1.35-.33-2v-4.73a1.27,1.27,0,0,0,.33-1v-.33c.32-1,.65-1.7,1-2.71a31.55,31.55,0,0,1,5.2-9.13c0-.34.65-1,.65-1a4.68,4.68,0,0,0,1-1.36c.65-.67,1.62-1.69,2.28-2.36,1.62-2,3.57-3.72,5.2-5.42,1.95-1.69,4.22-3.38,6.17-5.07,1-.67,2.28-1.69,3.25-2.36.33-.34,1-.68,1.3-1A3.34,3.34,0,0,0,289,602c5.53-3.72,11.05-7.1,16.58-10.49,6.5-3.72,13.33-7.1,19.83-10.14l10.72-5.07a3.17,3.17,0,0,0,1-.34c.32-.34,1-.34,1.3-.68l2.93-1a48.67,48.67,0,0,1,6.17-2.71,512.76,512.76,0,0,1,54-18.93c21.13-6.43,40.64-11.5,62.42-16.24,29.91-6.08,59.81-10.82,90-14.54,1,1.36,1.95,3,2.93,4.74.32.67.65,1.35,1,2,0,.33.33,1,.33,1.35v.34h.32a23.3,23.3,0,0,1,.65,4.73Zm163.19-58.85a25.78,25.78,0,0,1-2.27,4.05,1.71,1.71,0,0,1-1-.33h-1a1.68,1.68,0,0,0-1.3-.67c.33,0-.33-.34-.33-.34-.32-.34-.65-.34-.65-.68-.65-.33-.65-.67-1-1a10.33,10.33,0,0,1-2-7.44c0-3,1.3-5.75,2.6-8.45a19.32,19.32,0,0,1,4.88-7.78,26.66,26.66,0,0,1,3.25-2c.32-.34.32-.34.65-.34-.33,0,.65-.34.65-.34a.32.32,0,0,0,.32-.34h1.3c-.32,0,0,0,0,.34h.65l.33.34c.32.34.32.68.65.68,1,1.69.65,4.05.65,6.08C728.2,469.1,725.27,475.52,722.35,480.93Z"/><path class="cls-3" d="M976.87,562.09c-2.27-.67-5.2-.33-6.82,1l-.65.68c-.65.33-1,.67-1.63,1-.65,0-1,.34-1.63.68a1.15,1.15,0,0,0-.65.33c-1.3.34-2.6,1-3.9,1.36h-.65a6.22,6.22,0,0,1-2.27.33,4.64,4.64,0,0,1-2.28.34l-.32.34h-5.85a6.83,6.83,0,0,1-2.6-.34h-2.28a.33.33,0,0,0-.33-.34h-1c-1.63-.33-3.25-1-4.88-1.35a.32.32,0,0,1-.32-.34,1.19,1.19,0,0,1-1-.33c-1-.34-1.62-.68-2.6-1a15.72,15.72,0,0,0-2.27-1c-.33-.34-.65-.34-1-.68-.32,0-.32-.34-.65-.34a40.13,40.13,0,0,1-4.55-3.38,23.37,23.37,0,0,1-4.23-4.06c-.32,0-.32-.33-.65-.67l-.65-.68c-.65-1-1.3-1.69-1.95-2.71a54.18,54.18,0,0,1-6.5-12.17c-.32-1-1-2-1.3-3.38,0-.68-.32-1-.65-1.69v-.34c0-.34-.32-1-.32-1.35a72.93,72.93,0,0,1-1.63-8.12c-.65-4.06-1-7.78-1.3-11.83a86.51,86.51,0,0,0,15.61-8.12,182.76,182.76,0,0,0,30.55-25,258.19,258.19,0,0,0,45.51-64.26,151,151,0,0,0,12-29.08c1.95-7.1,3.9-14.88,2.6-22a11.93,11.93,0,0,0-3.25-7.44c-2.6-3-7.15-4.73-10.73-5.75-10.4-3-21.45-.34-30.55,5.41-9.76,5.75-18.21,14.54-25.36,23.68A227.45,227.45,0,0,0,921.93,413,262.88,262.88,0,0,0,906,448.13,156.43,156.43,0,0,0,896.9,483a148.85,148.85,0,0,0-1.8,19.15,5.57,5.57,0,0,0-.8.13c-20.15,3.72-41.28,7.1-61.76,6.09-2.92-.34-6.18-.68-9.1-1a70.8,70.8,0,0,0,4.23-19.95,29.09,29.09,0,0,0-2.28-13.86c-1.95-4.74-6.18-7.44-10.73-8.8-8.12-2.7-18.2.68-23.4,7.78a18.12,18.12,0,0,0-3.25,8.79,27.82,27.82,0,0,0-14.63,16.57,33.87,33.87,0,0,0,.32,22.66,22.71,22.71,0,0,0,17.56,13.87c11,1.35,20.15-6.43,26-15.22,1.3-2,2.6-4.4,3.9-6.77A105.65,105.65,0,0,0,839,513.74c19,.33,37.35-3.51,56-7.45,0,2.81.08,5.64.25,8.46a46.05,46.05,0,0,1-6.18,2.37c-.65,0,0,.67.65.34,1.63-.34,3.58-.68,5.53-1,1,13.19,4.55,26.38,12,37.2,10.07,13.86,26,20.63,42.26,21a44.34,44.34,0,0,0,17.55-2.37,37.57,37.57,0,0,0,6.5-2.71c1-.67,1.63-1,2.6-1.69a5.72,5.72,0,0,0,1.63-1.35c.32,0,.32-.34.65-.34l.21-.34h.11C980.77,564.12,978.17,562.43,976.87,562.09Zm-69.24-57.82c0-8.12,1-15.9,2-24,.65-3.38,1.3-7.1,1.95-10.82l.33-1a3.84,3.84,0,0,0,.32-1.69c.33-1.35.65-2.7,1-3.72,3.25-11.5,7.8-22.32,12.68-33.14A326.6,326.6,0,0,1,945.34,395c6.83-10.48,14-20,23.41-28.07l5.85-5.07,1-.68a6.88,6.88,0,0,0,1.63-1c1-.68,2.27-1.35,3.25-2,.65,0,1-.34,1.62-.68a3.23,3.23,0,0,1,1-.33l2.92-1c.33-.34.65-.34,1.3-.67h.33c.65,0,1-.34,1.62-.34h4.56l1,.34c.65,0,1,.33,1.63.33h.32l.33.34c.65,0,1,.34,1.62.68s1,.34,1.3.67c.33,0,.65.34,1,.34l1,1,.33.34.32.33c.33.68.65,1,1,1.69s.32,1,.65,1.7v.33a1.3,1.3,0,0,1,.32,1,22.83,22.83,0,0,1,.33,4.73,43,43,0,0,1-1.3,10.82,69.42,69.42,0,0,1-3.58,12.85c-1.62,5.08-3.9,10.15-5.85,14.88-5.2,11.5-11.38,22-17.88,32.47-14.3,22-31.86,42.61-52.66,58.5-5.2,3.72-10.4,7.1-15.93,10.48Zm-104-33.48a10.24,10.24,0,0,1,1.95-1c.33-.34.65-.34,1.63-.68h.65v-.34h1l.33.34h.32s1,.34,1,0c0,.34,0,.34.32.34s.65.34,1,.67h.32l.33.34a4.59,4.59,0,0,1,1.3,1l.32.33.33.34c.32.34.65,1,1,1.36a19,19,0,0,1,1.3,2.7,25.82,25.82,0,0,1,1.3,5.41,43.31,43.31,0,0,0-19.5-2.7C799.06,475.52,801.33,472.82,803.61,470.79Zm2.6,49.71c-.32.34-1.3,1.69-2,2.37a20.47,20.47,0,0,1-2.6,2.7c-.33.34-1,.68-1.3,1l-.33.33a1.1,1.1,0,0,1-.65.34,8,8,0,0,1-2.27,1.36,4.38,4.38,0,0,0-1.3.67h-2.93c-.32,0-.65,0-.65-.34a7.17,7.17,0,0,0-1.3-.33c-.32,0-.65-.34-1-.34a.33.33,0,0,0-.33-.34c-.65-.68-1.3-1-2-1.69-.32-.34-.65-.34-1-.68,0-.34-.65-.67-.65-.67a7.14,7.14,0,0,1-1.3-2,29.25,29.25,0,0,1-3.91-21,36.2,36.2,0,0,1,3.91-10.14c.32-.34.65-.68.65-1h.32v-.34l.33-.33,2-2,.32-.34a35,35,0,0,0,3.25,8.11c4.88,7.78,12.36,12.18,20.48,14.88A58.42,58.42,0,0,1,806.21,520.5Zm11.7-30.43a60.57,60.57,0,0,1-3.25,14.87,30.18,30.18,0,0,1-7.15-4.05,23,23,0,0,1-9.43-18.26h.65a7,7,0,0,0,1.3-.34h5.2a4,4,0,0,1,2,.34c1.62,0,2.92.33,4.55.33,2.27.68,4.22,1,6.5,1.69A29.9,29.9,0,0,1,817.91,490.07Z"/><path class="cls-4" d="M1077,496.49c1-1.35-.32-2-1.3-2.37-1.3-.33-3.25-.33-4.22.68-7.16,6.76-14.31,13.19-22.11,19.28-5.2,4-10.73,8.45-16.58,11.49-1,.68-2.27,1.35-3.25,2-.32,0-1,.34-1.3.34-.32.34-1,.34-1.3.68l-2.93,1h-.32a1.87,1.87,0,0,0-1.3.34h-1c0-.34,0-.34-.32-.34s-.33,0-.33-.34c-.32,0-.32,0-.65-.34a.32.32,0,0,0-.32-.33c-.33-.68-.33-1-.65-1.7v-.33a2.63,2.63,0,0,1-.33-1.36,26.19,26.19,0,0,1,.33-5.07c1-6.42,2.92-12.51,4.55-18.6.65-3.38,1.3-6.42,2-9.8a17.38,17.38,0,0,0,0-7.11A4,4,0,0,0,1024,483a4.59,4.59,0,0,0-2-.67s-2.6-.34-.65,0c-1,0-1.62-.34-2.6-.34a18.85,18.85,0,0,0-7.47,2,36.8,36.8,0,0,0-7.48,5.07,56.45,56.45,0,0,0-4.55,4.4,18.5,18.5,0,0,0-4.23,5.75c-.65,2,3.9,1.69,4.88.67,2.6-2,4.88-5.07,7.48-7.78a41.41,41.41,0,0,1,6.17-4.39,17.83,17.83,0,0,1,2.6-1.35c.33,0,.65-.34,1-.34l.32-.34h1.3c.33.34.33.34.33.68a13,13,0,0,1-.33,3.38,88.74,88.74,0,0,1-1.62,9.13c-1.63,6.42-3.9,12.85-5.53,19.61-.65,3.38-1.3,7.1,0,10.15,1.3,3.38,4.55,4.73,7.48,5.41,8.13,1.35,16.9-3.72,23.4-7.78C1055.54,518.13,1066.59,507.31,1077,496.49Z"/><path class="cls-5" d="M1001.25,464a3.73,3.73,0,0,0,3.25.33c10.73-4.39,21.78-8.11,32.51-12.85.65-.33,1.62-1,1-1.69a4.4,4.4,0,0,0-2.92,0c-11.06,3.72-22.11,8.12-32.84,12.52C1001.58,462.67,1000.6,463.35,1001.25,464Z"/><path class="cls-6" d="M1250.57,496.15c-1.3-.34-3.9-.34-5.2,1-6.17,7.44-13,14.88-20.8,21a60.92,60.92,0,0,1-9.43,6.77,41.15,41.15,0,0,1-8.78,4.05,52.92,52.92,0,0,1-7.15,1.36h-.65a1.14,1.14,0,0,1-.65-.34h-2.27c-.33,0-.65-.34-1-.34a4.48,4.48,0,0,1-2-.68h-.32a1.19,1.19,0,0,0-1-.33l-2-1a14.25,14.25,0,0,1-2.92-2.37,24.84,24.84,0,0,1-6.18-7.1,19.28,19.28,0,0,1-2.6-10.48c1.62,1.69,4.87,2.37,7.48,2.71a14.88,14.88,0,0,0,8.45-2.71,19.58,19.58,0,0,0,9.1-13.53c1-5.41-2.28-9.8-7.48-11.16-6.5-1.69-13.65,1.36-18.2,6.09a30.8,30.8,0,0,0-7.72,17.44c-4.77,3.3-10.35,6.62-15.68,6.91a8.92,8.92,0,0,1-5.21-.68,16.3,16.3,0,0,1-5.2-3,33.62,33.62,0,0,1-7.47-9.13,41,41,0,0,0-6.51-8.46c-2.92-3-8.12-3.38-12-2-4.55,1-8.13,4.73-11.06,8.45-5.2,6.42-8.12,13.86-12,21a35.67,35.67,0,0,0,.65-5.41c1-5.75,1.62-11.16,2.27-16.58a76.13,76.13,0,0,0,.33-12.17c-.65-2.7-2.6-4.06-5.2-3-2.6.67-4.56,3.38-6.18,5.07-3.58,3.72-7.15,7.78-10.73,11.5-2.27,2.36-4.22,4.73-6.17,7.1l-2.93,3c-.32,1-.32,2.37-.65,3.72h.33c2-1.35,4.22-2.36,5.85-4.06s3.25-3.72,4.87-5.41c2.93-3,5.85-6.42,8.78-9.46,2.27-2.37,4.55-4.4,6.83-6.77,0,2-.33,4.06-.33,6.09a139.28,139.28,0,0,1-2,15.89l-2,14.21c0,1.35-.33,2.7-.33,4,0,2.37,2.28,2.37,3.91,2,3.25-.34,5.2-4.06,6.5-6.76l6.82-13.19c2.6-4.73,5.21-9.13,9.11-12.85a15.72,15.72,0,0,1,2.27-2.37,17.71,17.71,0,0,0,2.6-1.35,1,1,0,0,0,.65-.34h1.3c.65-.34,1-.34,2.28,0a.32.32,0,0,0,.32.34.33.33,0,0,1,.33.34,5.86,5.86,0,0,1,1.62,1.35,17.81,17.81,0,0,1,2.6,3.72,108.61,108.61,0,0,0,7.16,9.81c4.22,4.73,9.42,7.78,15.27,8.45,7,.25,13.33-2.31,18.92-6,.54,6.27,3.8,11.74,8.06,16.17,9.76,9.47,24.06,9.8,36.09,5.07,15.92-6.09,28.6-19.28,38.68-33.48C1253.17,497.17,1251.22,496.49,1250.57,496.15Zm-70.86,2.37a26.34,26.34,0,0,1,5.2-8.12,17.79,17.79,0,0,1,2.92-2.36,8.19,8.19,0,0,0,1.53-.93c.11.05,1.67-.43,1.4-.43h1a1.14,1.14,0,0,1,.65.34h.65c-.33,0,.32.34.32.34.33.34.33.68.65.68,1.3,1.35,1.63,3.72,1.3,5.75-.32,4.73-3.57,9.8-7.48,11.83-.32.34-.64.34-.64.68-.33,0-1,.34-1.31.34h-1.3a3.24,3.24,0,0,1-1.62-1.36c-.33-.34-.33-1.35-1-1.69-.32-.34-.65-.34-1-.67.32,0-.65-.34-.65-.34,0-.34-.65-.34-1,0a1.15,1.15,0,0,0-1,.34C1178.73,501.22,1179.38,499.87,1179.71,498.52Z"/><path class="cls-7" d="M601.34,586.37a18.85,18.85,0,0,1,9.34-2.34,17.12,17.12,0,0,1,12.55,4.85l1.86-1.93a16.76,16.76,0,0,0-6.36-4.23,22.73,22.73,0,0,0-8.17-1.43A21.86,21.86,0,0,0,599.73,584a19.86,19.86,0,0,0-7.59,7.41,21.76,21.76,0,0,0,0,21.25,19.86,19.86,0,0,0,7.59,7.41,21.85,21.85,0,0,0,10.83,2.68,22.17,22.17,0,0,0,8.14-1.46,17,17,0,0,0,6.39-4.26l-1.86-1.92a17.11,17.11,0,0,1-12.55,4.9,19,19,0,0,1-9.34-2.33,17.19,17.19,0,0,1-6.6-6.45,18.88,18.88,0,0,1,0-18.39A17.19,17.19,0,0,1,601.34,586.37Z"/><path class="cls-8" d="M699.89,584a23.13,23.13,0,0,0-21.71,0,20,20,0,0,0-7.62,7.44,21.53,21.53,0,0,0,0,21.13,20,20,0,0,0,7.62,7.44,23.21,23.21,0,0,0,21.71,0,19.8,19.8,0,0,0,7.62-7.41,21.76,21.76,0,0,0,0-21.25A19.8,19.8,0,0,0,699.89,584Zm5,27.23a17.21,17.21,0,0,1-6.53,6.45,19.71,19.71,0,0,1-18.59,0,17.11,17.11,0,0,1-6.57-6.45,18.88,18.88,0,0,1,0-18.39,17.11,17.11,0,0,1,6.57-6.45,19.63,19.63,0,0,1,18.59,0,17.21,17.21,0,0,1,6.53,6.45,18.81,18.81,0,0,1,0,18.39Z"/><path class="cls-9" d="M777,603a58.08,58.08,0,0,0-7.18-2.15,62.86,62.86,0,0,1-6.36-1.87,10.54,10.54,0,0,1-3.91-2.51,6,6,0,0,1-1.57-4.38,7.16,7.16,0,0,1,2.91-5.9q2.93-2.27,8.58-2.27a20.42,20.42,0,0,1,5.81.87,18.93,18.93,0,0,1,5.4,2.57l1.11-2.39a19.41,19.41,0,0,0-5.66-2.69,22.86,22.86,0,0,0-6.66-1,19.72,19.72,0,0,0-8.08,1.46,10.77,10.77,0,0,0-4.82,3.94,10,10,0,0,0-1.57,5.46,8.61,8.61,0,0,0,1.9,5.86,11.46,11.46,0,0,0,4.61,3.24,61.52,61.52,0,0,0,7.21,2.16,56.47,56.47,0,0,1,6.3,1.81,10.46,10.46,0,0,1,3.91,2.51,6,6,0,0,1,1.58,4.38,6.91,6.91,0,0,1-3,5.78c-2,1.48-4.92,2.22-8.81,2.22a20.91,20.91,0,0,1-7.68-1.43,15.9,15.9,0,0,1-5.81-3.71l-1.34,2.22a16.57,16.57,0,0,0,6.33,4,23.86,23.86,0,0,0,8.55,1.54,20.25,20.25,0,0,0,8.18-1.46,10.9,10.9,0,0,0,4.93-3.91,9.67,9.67,0,0,0,1.6-5.42,8.34,8.34,0,0,0-1.89-5.75A11.89,11.89,0,0,0,777,603Z"/><polygon class="cls-10" points="869.87 581.58 851.6 613.16 833.33 581.58 830.82 581.58 830.82 622.44 833.74 622.44 833.74 587.6 850.84 617.01 852.3 617.01 869.4 587.48 869.46 622.44 872.38 622.44 872.32 581.58 869.87 581.58"/><polygon class="cls-11" points="926.49 603 948.26 603 948.26 600.38 926.49 600.38 926.49 584.27 950.83 584.27 950.83 581.58 923.51 581.58 923.51 622.44 951.7 622.44 951.7 619.76 926.49 619.76 926.49 603"/><polygon class="cls-12" points="993.37 584.27 1008.08 584.27 1008.08 622.44 1011.05 622.44 1011.05 584.27 1025.76 584.27 1025.76 581.58 993.37 581.58 993.37 584.27"/><rect class="cls-13" x="1070.51" y="581.58" width="2.98" height="40.86"/><path class="cls-14" d="M1133,586.37a18.88,18.88,0,0,1,9.34-2.34,17.11,17.11,0,0,1,12.55,4.85l1.87-1.93a16.76,16.76,0,0,0-6.36-4.23,22.78,22.78,0,0,0-8.18-1.43,21.85,21.85,0,0,0-10.82,2.69,19.86,19.86,0,0,0-7.59,7.41,21.69,21.69,0,0,0,0,21.25,19.86,19.86,0,0,0,7.59,7.41,21.84,21.84,0,0,0,10.82,2.68,22.22,22.22,0,0,0,8.15-1.46,17,17,0,0,0,6.39-4.26l-1.87-1.92a17.11,17.11,0,0,1-12.55,4.9,19,19,0,0,1-9.34-2.33,17.09,17.09,0,0,1-6.59-6.45,18.81,18.81,0,0,1,0-18.39A17.09,17.09,0,0,1,1133,586.37Z"/><path class="cls-15" d="M1223,603a58.62,58.62,0,0,0-7.18-2.15,62.39,62.39,0,0,1-6.37-1.87,10.54,10.54,0,0,1-3.91-2.51,6,6,0,0,1-1.57-4.38,7.16,7.16,0,0,1,2.91-5.9q2.92-2.27,8.58-2.27a20.42,20.42,0,0,1,5.81.87,18.93,18.93,0,0,1,5.4,2.57l1.11-2.39a19.41,19.41,0,0,0-5.66-2.69,22.86,22.86,0,0,0-6.66-1,19.75,19.75,0,0,0-8.08,1.46,10.69,10.69,0,0,0-4.81,3.94,9.89,9.89,0,0,0-1.58,5.46,8.61,8.61,0,0,0,1.9,5.86,11.46,11.46,0,0,0,4.61,3.24,61.52,61.52,0,0,0,7.21,2.16,56.47,56.47,0,0,1,6.3,1.81,10.46,10.46,0,0,1,3.91,2.51,6,6,0,0,1,1.58,4.38,6.91,6.91,0,0,1-3,5.78q-3,2.22-8.81,2.22a20.91,20.91,0,0,1-7.68-1.43,15.9,15.9,0,0,1-5.81-3.71l-1.34,2.22a16.57,16.57,0,0,0,6.33,4,23.86,23.86,0,0,0,8.55,1.54,20.25,20.25,0,0,0,8.18-1.46,10.9,10.9,0,0,0,4.93-3.91,9.67,9.67,0,0,0,1.6-5.42,8.34,8.34,0,0,0-1.89-5.75A11.86,11.86,0,0,0,1223,603Z"/></svg>