<svg id="Layer_1" data-name="Layer 1" xmlns="http://www.w3.org/2000/svg" viewBox="0 0 1500 1000"><defs><style>.cls-1{fill:#b8e5eb;}.cls-2{fill:#324d76;}.cls-3{fill:#0eabb4;}</style></defs><rect class="cls-1" width="1500" height="1000"/><path class="cls-2" d="M608.14,435.93H591.49c0-3.48-4.09-8.18-11.24-8.18-5,0-11.13,2.25-11.13,6.24,0,3.37,4.59,4.69,14.4,7.25,10.93,2.86,26.35,6.54,26.35,21.86,0,13.28-11.64,21.55-27.88,21.55-21.76,0-30.85-14.71-30.85-25.54h16.65s1.33,11,15.12,11c7.45,0,10.21-3.17,10.21-6.13,0-4.4-5.82-5.93-12.26-7.46-10.42-2.45-28.7-6.33-28.7-21.76,0-12.66,12.46-22.06,28.29-22.06C598.53,412.74,608.14,425.1,608.14,435.93Z"/><path class="cls-2" d="M707.74,483.43H690.88V448l-16.65,35.45H655.54L638.89,448v35.45H622.13V414h18.59l24.21,51L689,414h18.7Z"/><path class="cls-2" d="M739.92,483.43H723.16V414h16.76Z"/><path class="cls-2" d="M772.19,467.9h36.47v15.53H755.44V414h16.75Z"/><path class="cls-2" d="M873.84,414v15.53H837.37v11.95h30.44V456H837.37V467.9h36.47v15.53H820.61V414Z"/><path class="cls-2" d="M639.91,579.8H623.05V544.35L606.4,579.8H587.71l-16.65-35.45V579.8H554.3V510.33h18.6l24.21,51,24.1-51h18.7Z"/><path class="cls-2" d="M708.55,510.33v15.53H672.09v11.95h30.44v14.51H672.09v11.95h36.46V579.8H655.33V510.33Z"/><path class="cls-2" d="M790,579.8H773.12L738,537.3v42.5H721.12V510.33H738l35.14,42.4v-42.4H790Z"/><path class="cls-2" d="M866.69,525.86H842.07V579.8h-17V525.86H800.49V510.33h66.2Z"/><path class="cls-2" d="M941.26,545.07a35.86,35.86,0,1,1-35.86-36A36,36,0,0,1,941.26,545.07Zm-56.39,0a20.43,20.43,0,1,0,20.53-20.33A20.44,20.44,0,0,0,884.87,545.07Z"/><path class="cls-2" d="M1010.62,536.38c0,10-4.9,18.49-12.36,22.48l14.3,20.94H991.72L981.3,562.53H969V579.8H952.29V510.33H985.9C1000,510.33,1010.62,521.27,1010.62,536.38ZM969,525.86V547h14.41a10.58,10.58,0,0,0,.1-21.15Z"/><path class="cls-2" d="M1075.69,532.3H1059c0-3.48-4.08-8.17-11.23-8.17-5,0-11.14,2.24-11.14,6.23,0,3.37,4.6,4.69,14.41,7.25,10.93,2.86,26.35,6.54,26.35,21.86,0,13.28-11.65,21.55-27.89,21.55-21.75,0-30.85-14.71-30.85-25.53h16.65s1.33,11,15.12,11c7.46,0,10.22-3.17,10.22-6.13,0-4.39-5.83-5.93-12.26-7.46-10.42-2.45-28.71-6.33-28.71-21.76,0-12.66,12.47-22.06,28.3-22.06C1066.09,509.11,1075.69,521.47,1075.69,532.3Z"/><path class="cls-2" d="M1153.84,579.8H1137v-27h-30.54v27h-16.75V510.33h16.75v27H1137v-27h16.86Z"/><path class="cls-2" d="M1186.12,579.8h-16.75V510.33h16.75Z"/><path class="cls-2" d="M1259.57,537.1c0,13.69-8.69,27-26.46,27H1218V579.8h-16.85V510.33h32.07C1251,510.33,1259.57,523.61,1259.57,537.1ZM1218,525.86v22.78h13.28c6.74,0,11.34-4,11.34-11.54s-4.6-11.14-11.34-11.24Z"/><path class="cls-2" d="M571.06,676.17H554.3V606.71h16.76Z"/><path class="cls-2" d="M654.41,676.17H637.56l-35.14-42.5v42.5H585.56V606.71h16.86l35.14,42.39V606.71h16.85Z"/><path class="cls-2" d="M722.86,628.67H706.2c0-3.47-4.08-8.17-11.23-8.17-5,0-11.14,2.24-11.14,6.23,0,3.37,4.6,4.7,14.41,7.25,10.93,2.86,26.35,6.54,26.35,21.86,0,13.28-11.64,21.55-27.89,21.55-21.75,0-30.85-14.7-30.85-25.53h16.66s1.32,11,15.11,11c7.46,0,10.22-3.17,10.22-6.13,0-4.39-5.82-5.92-12.26-7.46-10.42-2.45-28.7-6.33-28.7-21.76,0-12.66,12.46-22.06,28.29-22.06C713.25,605.48,722.86,617.84,722.86,628.67Z"/><path class="cls-2" d="M795.89,622.23H771.28v53.94h-17V622.23H729.7V606.71h66.19Z"/><path class="cls-2" d="M824.09,676.17H807.33V606.71h16.76Z"/><path class="cls-2" d="M901.72,622.23H877.1v53.94h-17V622.23H835.53V606.71h66.19Z"/><path class="cls-2" d="M976.7,640.52c0,23-14.5,36.87-33.91,36.87-19.72,0-33.1-13.89-33.1-36.87V606.71h16.75v33.81c0,13.38,5.72,21.35,16.35,21.35,10.41,0,17-8,17-21.35V606.71h17Z"/><path class="cls-2" d="M1050.86,622.23h-24.61v53.94h-17V622.23H984.67V606.71h66.19Z"/><path class="cls-2" d="M1115.53,606.71v15.52h-36.47v11.95h30.44v14.51h-30.44v11.95h36.47v15.53H1062.3V606.71Z"/><path class="cls-3" d="M421.09,690.79h-108l-6.21-31.07H427.3Z"/><path class="cls-3" d="M366.1,485.8a294.06,294.06,0,0,0,98.77-16.32C443,452.4,406.42,418.63,384,364.22a250.56,250.56,0,0,1-15.42-53.84,1.39,1.39,0,0,0-2.74,0,247.14,247.14,0,0,1-15.54,54c-22.57,54.23-59.34,87.6-81,104.23A293.83,293.83,0,0,0,366.1,485.8Z"/><path class="cls-3" d="M366.1,511.23c-51.56-.67-85.61-29.57-96.93-40.6,4.6,13.92,9,28.45,13.06,43.63A807.08,807.08,0,0,1,306,644.57H428.32c.58-6.32,1.4-14.41,2.56-23.8,0,0,2.89-23.41,7.27-46.58,8.16-43.26,23-89.87,27-102.05C452.5,484,417.59,511.9,366.1,511.23Z"/><path class="cls-3" d="M456.75,454.51a18.53,18.53,0,0,1,19.58,30.28c12.54-6.51,17.07-19.61,13.51-26.89C485.91,449.84,470.26,445.21,456.75,454.51Z"/><path class="cls-3" d="M274.7,454.51a18.53,18.53,0,0,0-19.58,30.28c-12.53-6.51-17.07-19.61-13.51-26.89C245.55,449.84,261.2,445.21,274.7,454.51Z"/></svg>