<svg id="Layer_1" data-name="Layer 1" xmlns="http://www.w3.org/2000/svg" viewBox="0 0 1500 1000"><defs><style>.cls-1{fill:#183645;}.cls-2{fill:#00fff3;}.cls-3{fill:#fff;}</style></defs><rect class="cls-1" width="1500" height="1000"/><path class="cls-2" d="M909.78,367.14,724.71,260.29a43.35,43.35,0,0,0-21.79-5.93c-22.86,0-43.81,18.27-43.81,43.81v56.35H681V298.17c0-13.58,11.4-22,22-22a21.63,21.63,0,0,1,10.87,3L898.86,386a21.9,21.9,0,0,1,0,37.93L713.79,530.83a21.62,21.62,0,0,1-10.87,3c-10.57,0-22-8.39-22-22V366.25H659.11V511.86c0,25.54,20.95,43.81,43.81,43.81a43.37,43.37,0,0,0,21.79-5.93L909.78,442.89C938.93,426.06,938.93,384,909.78,367.14Z"/><rect class="cls-2" x="568.36" y="359.52" width="21.47" height="45.49"/><rect class="cls-2" x="568.36" y="416.74" width="21.47" height="31.42"/><rect class="cls-2" x="748.03" y="360.38" width="21.47" height="44.63"/><rect class="cls-2" x="748.03" y="416.74" width="21.47" height="32.28"/><rect class="cls-2" x="612.99" y="338.35" width="21.47" height="39.2"/><rect class="cls-2" x="612.99" y="389.28" width="21.47" height="81.78"/><rect class="cls-2" x="702.82" y="338.65" width="21.47" height="38.89"/><rect class="cls-2" x="702.82" y="389.28" width="21.47" height="82.09"/><path class="cls-3" d="M424.74,657l-27.19,64.45H378.26L351.18,657h19.29l17.85,43.84L406.77,657Z"/><path class="cls-3" d="M431.09,645a10.16,10.16,0,0,1,0-14.86,11.85,11.85,0,0,1,8.39-3,12.12,12.12,0,0,1,8.38,2.88,9.21,9.21,0,0,1,3.24,7.19,10.18,10.18,0,0,1-3.24,7.73,11.72,11.72,0,0,1-8.38,3A11.89,11.89,0,0,1,431.09,645Zm-1,12h18.69v64.45H430.13Z"/><path class="cls-3" d="M518.37,660.16a29.76,29.76,0,0,1,11.56,11.62,38.35,38.35,0,0,1,0,34.86,29.63,29.63,0,0,1-11.56,11.62A32.85,32.85,0,0,1,502,722.4q-13.29,0-20.24-8.39v7.43H463.91V632.55H482.6v31.26Q489.68,656,502,656A32.84,32.84,0,0,1,518.37,660.16Zm-7.79,42.05q4.6-4.85,4.61-13t-4.61-13a16.78,16.78,0,0,0-23.6,0q-4.62,4.86-4.62,13t4.62,13a16.78,16.78,0,0,0,23.6,0Z"/><path class="cls-3" d="M607.08,694.48H558.32a15.18,15.18,0,0,0,6.23,9.47,20.65,20.65,0,0,0,12.22,3.47,24.67,24.67,0,0,0,8.92-1.5,21.43,21.43,0,0,0,7.25-4.73L602.88,712q-9.11,10.42-26.59,10.43A42,42,0,0,1,557,718.14a31.12,31.12,0,0,1-12.94-11.8,32.46,32.46,0,0,1-4.55-17.13A33,33,0,0,1,544,672.14a31.56,31.56,0,0,1,12.34-11.86A38.22,38.22,0,0,1,591,660.1a29.74,29.74,0,0,1,12,11.68,34.78,34.78,0,0,1,4.38,17.67C607.44,689.69,607.32,691.37,607.08,694.48Zm-43.73-20.72a15.27,15.27,0,0,0-5.27,9.82h31.75a15.43,15.43,0,0,0-5.28-9.76A15.73,15.73,0,0,0,574,670.16,16.07,16.07,0,0,0,563.35,673.76Z"/><path class="cls-3" d="M672.07,660.16a29.76,29.76,0,0,1,11.56,11.62,38.35,38.35,0,0,1,0,34.86,29.63,29.63,0,0,1-11.56,11.62,32.79,32.79,0,0,1-16.35,4.14q-12.35,0-19.41-7.79v30.07H617.62V657h17.85v7.42q6.94-8.38,20.25-8.38A32.78,32.78,0,0,1,672.07,660.16Zm-7.79,42.05q4.62-4.85,4.61-13t-4.61-13a16.78,16.78,0,0,0-23.6,0q-4.6,4.86-4.61,13t4.61,13a16.78,16.78,0,0,0,23.6,0Z"/><path class="cls-3" d="M698,632.55h18.69v88.89H698Z"/><path class="cls-3" d="M780.79,663.15q8,7.14,8,21.51v36.78H771.32v-8q-5.27,9-19.64,9a30.42,30.42,0,0,1-12.88-2.52,19.19,19.19,0,0,1-8.33-7,18,18,0,0,1-2.87-10.06q0-9,6.76-14.14t20.91-5.15h14.85q0-6.11-3.71-9.4t-11.14-3.3a32.41,32.41,0,0,0-10.12,1.62,27,27,0,0,0-8.45,4.37L730,663.81a40.75,40.75,0,0,1,12.64-5.75,56.91,56.91,0,0,1,15.16-2Q772.76,656,780.79,663.15ZM764.85,707.6a12.06,12.06,0,0,0,5.27-6.53v-6.59H757.31q-11.5,0-11.5,7.55a6.71,6.71,0,0,0,2.81,5.69,12.67,12.67,0,0,0,7.73,2.1A16.23,16.23,0,0,0,764.85,707.6Z"/><path class="cls-3" d="M866.21,657l-29.12,68.4q-4.43,11.15-11,15.7a26.87,26.87,0,0,1-15.75,4.55,32.71,32.71,0,0,1-10-1.56,22,22,0,0,1-8-4.31l6.83-13.3a15.91,15.91,0,0,0,5,3,15.63,15.63,0,0,0,5.57,1.07,10,10,0,0,0,6.23-1.85,15.81,15.81,0,0,0,4.31-6.17l.24-.6L792.65,657h19.28L830,700.71,848.24,657Z"/><path class="cls-3" d="M866.56,719a11.38,11.38,0,0,1-3.35-8.38,11,11,0,0,1,3.35-8.33,12.37,12.37,0,0,1,16.54,0,11,11,0,0,1,3.35,8.33A11.38,11.38,0,0,1,883.1,719a11.86,11.86,0,0,1-16.54,0Z"/><path class="cls-3" d="M908.67,718.14a31.7,31.7,0,0,1-12.81-11.8,32.5,32.5,0,0,1,12.81-46.06A39.69,39.69,0,0,1,927.18,656,35.91,35.91,0,0,1,945,660.28a25.24,25.24,0,0,1,11.09,12.16l-14.5,7.79q-5-8.87-14.5-8.87a16.43,16.43,0,0,0-12.1,4.79q-4.79,4.8-4.79,13.06T915,702.27a16.39,16.39,0,0,0,12.1,4.79q9.59,0,14.5-8.86l14.5,7.9a25.66,25.66,0,0,1-11.09,12,35.41,35.41,0,0,1-17.79,4.32A39.57,39.57,0,0,1,908.67,718.14Z"/><path class="cls-3" d="M976.12,718.14a31.56,31.56,0,0,1-12.64-11.8,34.52,34.52,0,0,1,0-34.26,31.7,31.7,0,0,1,12.64-11.8,41.27,41.27,0,0,1,36.48,0,31.74,31.74,0,0,1,12.58,11.8,34.52,34.52,0,0,1,0,34.26,31.6,31.6,0,0,1-12.58,11.8,41.18,41.18,0,0,1-36.48,0Zm30.07-15.93q4.62-4.85,4.62-13t-4.62-13a15.56,15.56,0,0,0-11.8-4.85,15.78,15.78,0,0,0-11.86,4.85q-4.66,4.86-4.67,13t4.67,13a15.75,15.75,0,0,0,11.86,4.85A15.53,15.53,0,0,0,1006.19,702.21Z"/><path class="cls-3" d="M1141.69,663.15q7.13,7.14,7.13,21.39v36.9h-18.69v-34q0-7.68-3.18-11.45t-9-3.77q-6.59,0-10.42,4.25t-3.84,12.64v32.35H1085v-34q0-15.23-12.22-15.22a13.2,13.2,0,0,0-10.3,4.25q-3.84,4.26-3.83,12.64v32.35h-18.69V657h17.85v7.42a23.64,23.64,0,0,1,8.8-6.23A29.8,29.8,0,0,1,1078,656a27.77,27.77,0,0,1,12.34,2.69,21.91,21.91,0,0,1,8.87,7.85,26.39,26.39,0,0,1,10-7.79,31.67,31.67,0,0,1,13.24-2.75Q1134.57,656,1141.69,663.15Z"/></svg>