<svg id="Layer_1" data-name="Layer 1" xmlns="http://www.w3.org/2000/svg" viewBox="0 0 1500 1000"><defs><style>.cls-1{fill:#fae69d;}.cls-2{fill:#f05261;}</style></defs><rect class="cls-1" width="1500" height="1000"/><path class="cls-2" d="M464.19,430H424.3c0-8.32-9.79-19.58-26.92-19.58-12,0-26.68,5.38-26.68,14.93,0,8.07,11,11.25,34.51,17.37,26.18,6.85,63.14,15.66,63.14,52.37,0,31.82-27.9,51.64-66.81,51.64-52.13,0-73.91-35.24-73.91-61.18h39.89S370.7,512,403.74,512c17.87,0,24.47-7.59,24.47-14.69,0-10.52-13.95-14.19-29.36-17.86-25-5.87-68.77-15.17-68.77-52.13,0-30.34,29.86-52.86,67.79-52.86C441.18,374.47,464.19,404.09,464.19,430Z"/><path class="cls-2" d="M639.16,414.61h-59V543.82H539.56V414.61h-59v-37.2H639.16Z"/><path class="cls-2" d="M1010,441.53c0,32.79-20.8,64.6-63.38,64.6H910.41v37.69H870V377.41h76.84C989.46,377.41,1010,409.22,1010,441.53Zm-99.6-26.92v54.57h31.81c16.16,0,27.17-9.54,27.17-27.65,0-17.87-11-26.68-27.17-26.92Z"/><path class="cls-2" d="M1169.81,430h-39.89c0-8.32-9.79-19.58-26.92-19.58-12,0-26.67,5.38-26.67,14.93,0,8.07,11,11.25,34.5,17.37C1137,449.6,1174,458.41,1174,495.12c0,31.82-27.9,51.64-66.81,51.64-52.12,0-73.9-35.24-73.9-61.18h39.89s3.18,26.43,36.22,26.43c17.86,0,24.47-7.59,24.47-14.69,0-10.52-13.95-14.19-29.37-17.86-25-5.87-68.76-15.17-68.76-52.13,0-30.34,29.85-52.86,67.78-52.86C1146.81,374.47,1169.81,404.09,1169.81,430Z"/><rect class="cls-2" x="652.09" y="507.95" width="169.71" height="35.87"/><rect class="cls-2" x="675.45" y="442.68" width="122.97" height="35.87"/><rect class="cls-2" x="699.57" y="377.41" width="74.75" height="35.87"/><path class="cls-2" d="M389.47,629.16a33.75,33.75,0,0,1-29.41,16.37c-19.7,0-34-14.43-34-33,0-17.48,14.33-32.09,34-32.09,13.41,0,23.95,6.29,29.59,15.72l-12.85,7.49c-3-5.73-8.79-9.52-16.74-9.52-11,0-18.68,8-18.68,18.4a18.52,18.52,0,0,0,18.68,18.77,18.26,18.26,0,0,0,16.55-9.52Z"/><path class="cls-2" d="M458.63,613a32.46,32.46,0,1,1-32.46-32.55A32.59,32.59,0,0,1,458.63,613Zm-51.05,0a18.5,18.5,0,1,0,18.59-18.4A18.52,18.52,0,0,0,407.58,613Z"/><path class="cls-2" d="M530,644.42H514.76L482.94,606v38.47H467.69V581.53h15.25l31.82,38.38V581.53H530Z"/><path class="cls-2" d="M592,601.42H576.89c0-3.15-3.7-7.4-10.17-7.4-4.53,0-10.08,2-10.08,5.64,0,3.05,4.16,4.25,13,6.56,9.89,2.59,23.86,5.92,23.86,19.79,0,12-10.55,19.52-25.25,19.52-19.7,0-27.93-13.32-27.93-23.12h15.08s1.2,10,13.68,10c6.75,0,9.25-2.86,9.25-5.54,0-4-5.27-5.37-11.1-6.75-9.43-2.22-26-5.74-26-19.7,0-11.47,11.28-20,25.61-20C583.27,580.42,592,591.61,592,601.42Z"/><path class="cls-2" d="M658.08,595.59H635.79v48.83H620.44V595.59H598.16V581.53h59.92Z"/><path class="cls-2" d="M721.23,605.11c0,9.07-4.44,16.74-11.19,20.35l13,19H704.13l-9.44-15.63H683.6v15.63H668.43V581.53h30.42C711.62,581.53,721.23,591.43,721.23,605.11Zm-37.63-9.52v19.14h13a9.57,9.57,0,0,0,.09-19.14Z"/><path class="cls-2" d="M791.32,612.14c0,20.81-13.13,33.39-30.7,33.39-17.85,0-30-12.58-30-33.39V581.53h15.16v30.61c0,12.12,5.18,19.33,14.8,19.33,9.43,0,15.35-7.21,15.35-19.33V581.53h15.35Z"/><path class="cls-2" d="M862.61,629.16a33.72,33.72,0,0,1-29.4,16.37c-19.7,0-34-14.43-34-33,0-17.48,14.33-32.09,34-32.09,13.4,0,23.95,6.29,29.59,15.72l-12.86,7.49c-3-5.73-8.78-9.52-16.73-9.52-11,0-18.68,8-18.68,18.4a18.52,18.52,0,0,0,18.68,18.77,18.28,18.28,0,0,0,16.55-9.52Z"/><path class="cls-2" d="M929,595.59H906.72v48.83H891.36V595.59H869.08V581.53H929Z"/><path class="cls-2" d="M954.52,644.42H939.35V581.53h15.17Z"/><path class="cls-2" d="M1029.42,613A32.46,32.46,0,1,1,997,580.42,32.59,32.59,0,0,1,1029.42,613Zm-51.05,0A18.5,18.5,0,1,0,997,594.57,18.52,18.52,0,0,0,978.37,613Z"/><path class="cls-2" d="M1100.8,644.42h-15.25L1053.73,606v38.47h-15.25V581.53h15.25l31.82,38.38V581.53h15.25Z"/><path class="cls-2" d="M1162.76,601.42h-15.08c0-3.15-3.7-7.4-10.17-7.4-4.53,0-10.08,2-10.08,5.64,0,3.05,4.16,4.25,13,6.56,9.89,2.59,23.86,5.92,23.86,19.79,0,12-10.54,19.52-25.25,19.52-19.69,0-27.93-13.32-27.93-23.12h15.08s1.2,10,13.69,10c6.75,0,9.24-2.86,9.24-5.54,0-4-5.27-5.37-11.09-6.75-9.44-2.22-26-5.74-26-19.7,0-11.47,11.28-20,25.62-20C1154.06,580.42,1162.76,591.61,1162.76,601.42Z"/></svg>