<svg id="Layer_1" data-name="Layer 1" xmlns="http://www.w3.org/2000/svg" viewBox="0 0 1500 1000"><defs><style>.cls-1{fill:#003232;}.cls-2{fill:#60db42;}.cls-3{fill:#fff;}</style></defs><rect class="cls-1" width="1500" height="1000"/><path class="cls-2" d="M889.81,509.81H849.57l-20-34.65h81.15l-20-34.65L830.6,336.41l-20-34.65H729.45l0,0,0,0h-40l-20,34.65-60.1,104.1-20,34.65H669.5l-20,34.65-20,34.65H909.81l-17.9-31Zm-200.3,0,20-34.65h39.84l-19.92-34.5.09-.15H649.3l60.1-104.1h81.19l60.11,104.1H809.56l-20-34.73-20-34.59,0-.06H729.5l0,.06-20,34.59h40l0,.06,20,34.67h-.19l20,34.65h.19l20,34.65Z"/><path class="cls-3" d="M412.45,696.1A45.35,45.35,0,0,1,399,690.63l6.86-14.78a43.43,43.43,0,0,0,11.48,4.95,48.31,48.31,0,0,0,13.19,1.91q13.07,0,13.07-6.47,0-3-3.57-4.35a52.25,52.25,0,0,0-10.95-2.24,104.71,104.71,0,0,1-14.38-3,22.23,22.23,0,0,1-9.83-6.07q-4.16-4.35-4.15-12.4a19.42,19.42,0,0,1,3.89-11.94A25,25,0,0,1,416,628.09a48.28,48.28,0,0,1,17.61-2.9,69.69,69.69,0,0,1,15,1.64,42.09,42.09,0,0,1,12.34,4.56L454,646a41,41,0,0,0-20.45-5.28q-6.6,0-9.9,1.85c-2.2,1.23-3.3,2.82-3.3,4.75q0,3.3,3.57,4.62a63.5,63.5,0,0,0,11.34,2.51,119.46,119.46,0,0,1,14.25,3.1,21.36,21.36,0,0,1,9.63,6q4.1,4.35,4.09,12.14a18.78,18.78,0,0,1-3.95,11.74,25.27,25.27,0,0,1-11.55,8,51.46,51.46,0,0,1-18,2.84A69,69,0,0,1,412.45,696.1Z"/><path class="cls-3" d="M545,667.54h-53.7A16.72,16.72,0,0,0,498.21,678q5.4,3.82,13.45,3.83a27.23,27.23,0,0,0,9.83-1.65,23.84,23.84,0,0,0,8-5.21l10.95,11.87q-10,11.48-29.29,11.48a46.25,46.25,0,0,1-21.24-4.69,34.41,34.41,0,0,1-14.25-13,35.83,35.83,0,0,1-5-18.87,36.26,36.26,0,0,1,4.95-18.8,34.7,34.7,0,0,1,13.59-13.06,42.1,42.1,0,0,1,38.19-.2,32.72,32.72,0,0,1,13.26,12.87A38.34,38.34,0,0,1,545.44,662C545.44,662.26,545.31,664.11,545,667.54Zm-48.15-22.83a16.84,16.84,0,0,0-5.81,10.82h35a17,17,0,0,0-5.8-10.75,17.38,17.38,0,0,0-11.61-4A17.69,17.69,0,0,0,496.89,644.71Z"/><path class="cls-3" d="M671.83,626.24l-25.73,71H626.31l-16-44.06-16.49,44.06H574.07l-25.6-71h19.4l16.75,48,17.42-48h17.41l16.89,48,17.28-48Z"/><path class="cls-2" d="M793.54,633q7.85,7.85,7.85,23.55v40.63H780.81V659.75q0-8.44-3.5-12.6t-10-4.15q-7.26,0-11.48,4.68t-4.22,13.92v35.62H731.07V659.75q0-16.75-13.46-16.75-7.12,0-11.35,4.68T702,661.6v35.62H681.46v-71h19.66v8.18a25.94,25.94,0,0,1,9.7-6.86,32.65,32.65,0,0,1,12.6-2.37,30.66,30.66,0,0,1,13.59,3,24.18,24.18,0,0,1,9.76,8.65,29,29,0,0,1,11-8.58,34.78,34.78,0,0,1,14.57-3Q785.7,625.19,793.54,633Z"/><path class="cls-2" d="M889.78,667.54H836.09A16.66,16.66,0,0,0,843,678q5.4,3.82,13.46,3.83a27.21,27.21,0,0,0,9.82-1.65,24,24,0,0,0,8-5.21l10.95,11.87q-10,11.48-29.29,11.48a46.19,46.19,0,0,1-21.24-4.69,34.28,34.28,0,0,1-14.25-13,35.74,35.74,0,0,1-5-18.87,36.26,36.26,0,0,1,5-18.8,34.7,34.7,0,0,1,13.59-13.06,42.1,42.1,0,0,1,38.19-.2,32.72,32.72,0,0,1,13.26,12.87A38.34,38.34,0,0,1,890.18,662C890.18,662.26,890.05,664.11,889.78,667.54Zm-48.15-22.83a16.88,16.88,0,0,0-5.81,10.82h35A17,17,0,0,0,865,644.78a17.38,17.38,0,0,0-11.61-4A17.7,17.7,0,0,0,841.63,644.71Z"/><path class="cls-2" d="M976.2,599.33v97.89H956.54V689q-7.65,9.24-22.16,9.24a36.85,36.85,0,0,1-18.14-4.49A32.09,32.09,0,0,1,903.5,681a42.54,42.54,0,0,1,0-38.52,32.15,32.15,0,0,1,12.74-12.8,36.84,36.84,0,0,1,18.14-4.48q13.59,0,21.24,8.57V599.33Zm-25.33,76.72Q956,670.7,956,661.73t-5.14-14.31a18.46,18.46,0,0,0-26,0q-5.14,5.34-5.15,14.31t5.15,14.32a18.48,18.48,0,0,0,26,0Z"/><path class="cls-2" d="M996.25,613.05a11.18,11.18,0,0,1,0-16.36,13.07,13.07,0,0,1,9.24-3.3,13.37,13.37,0,0,1,9.23,3.17,10.14,10.14,0,0,1,3.57,7.91,11.19,11.19,0,0,1-3.57,8.51,12.9,12.9,0,0,1-9.23,3.37A13.07,13.07,0,0,1,996.25,613.05Zm-1,13.19h20.58v71H995.2Z"/><path class="cls-2" d="M1048.83,693.59a35.05,35.05,0,0,1-14.12-13,37.59,37.59,0,0,1,0-37.74,35.05,35.05,0,0,1,14.12-13,43.65,43.65,0,0,1,20.38-4.68,39.49,39.49,0,0,1,19.59,4.68A27.77,27.77,0,0,1,1101,643.26l-16,8.58q-5.54-9.76-16-9.77a18.06,18.06,0,0,0-13.33,5.28q-5.26,5.28-5.27,14.38t5.27,14.38a18.06,18.06,0,0,0,13.33,5.28q10.56,0,16-9.76l16,8.7a28.35,28.35,0,0,1-12.21,13.2,39.09,39.09,0,0,1-19.59,4.75A43.53,43.53,0,0,1,1048.83,693.59Z"/></svg>