<svg id="Layer_1" data-name="Layer 1" xmlns="http://www.w3.org/2000/svg" viewBox="0 0 1500 1000"><defs><style>.cls-1{fill:#d6fff9;}.cls-2{fill:#00e087;}</style></defs><rect class="cls-1" width="1500" height="1000"/><path class="cls-2" d="M805.76,415.68h-18v39.5H775.31v-39.5h-18V404.31h48.47Z"/><path class="cls-2" d="M861.11,455.18H848.77V435.43H826.4v19.75H814.13V404.31H826.4v19.75h22.37V404.31h12.34Z"/><path class="cls-2" d="M911.45,404.31v11.37h-26.7v8.75H907v10.63H884.75v8.75h26.7v11.37h-39V404.31Z"/><path class="cls-2" d="M977.05,447.25H952.51l-3.36,7.93h-13l21.77-50.87h13.69l21.85,50.87h-13.1Zm-4.26-10-7.93-19-8.08,19Z"/><path class="cls-2" d="M1044.82,414.56l-10.62,5.38c-2.54-3.21-6.51-5-12.34-5-8.91,0-15.11,6.21-15.11,14.66a15,15,0,0,0,15.26,15c5.46,0,9.79-1.72,12.49-4.26v-4.94H1019V426h26.34v18.85c-.38.75-8.38,11.23-23.27,11.23-16.83,0-27.68-12.65-27.68-26.34,0-14.13,11.6-26.33,27.61-26.33A28,28,0,0,1,1044.82,414.56Z"/><path class="cls-2" d="M1093.59,404.31v11.37h-26.71v8.75h22.3v10.63h-22.3v8.75h26.71v11.37h-39V404.31Z"/><path class="cls-2" d="M1153.21,455.18h-12.35l-25.73-31.12v31.12h-12.34V404.31h12.34l25.73,31v-31h12.35Z"/><path class="cls-2" d="M1209.38,415.68h-18v39.5h-12.42v-39.5h-18V404.31h48.47Z"/><path class="cls-2" d="M865.64,498.38q12.18,11.89,12.18,35.27v61h-30.9V538.4q0-12.67-5.55-18.92t-16-6.24q-11.69,0-18.62,7.23T799.76,542v52.7h-30.9V488.08h29.52v12.48a41.06,41.06,0,0,1,15.25-10.4,53.25,53.25,0,0,1,20-3.66Q853.46,486.5,865.64,498.38Z"/><path class="cls-2" d="M1013.14,550.09H932.5a25.09,25.09,0,0,0,10.31,15.66q8.12,5.75,20.2,5.74A40.71,40.71,0,0,0,977.77,569a35.71,35.71,0,0,0,12-7.82L1006.2,579q-15,17.24-44,17.24-18,0-31.9-7a51.52,51.52,0,0,1-21.39-19.51,53.75,53.75,0,0,1-7.53-28.33,54.42,54.42,0,0,1,7.43-28.24,52.07,52.07,0,0,1,20.4-19.61,63.23,63.23,0,0,1,57.36-.3,49.23,49.23,0,0,1,19.91,19.32q7.23,12.59,7.23,29.22C1013.73,542.17,1013.54,544.94,1013.14,550.09Zm-72.31-34.27q-7.14,5.94-8.72,16.25h52.5a25.55,25.55,0,0,0-8.72-16.15,26,26,0,0,0-17.43-6Q947.95,509.88,940.83,515.82Z"/><path class="cls-2" d="M1046.62,593q-12.67-3.27-20.21-8.22l10.3-22.19A64.64,64.64,0,0,0,1054,570a72.09,72.09,0,0,0,19.81,2.88q19.62,0,19.62-9.71c0-3-1.79-5.22-5.35-6.54s-9-2.44-16.45-3.37a156.84,156.84,0,0,1-21.59-4.55,33.53,33.53,0,0,1-14.76-9.12Q1029,533.07,1029,521a29.14,29.14,0,0,1,5.84-17.93q5.85-7.83,17-12.18t26.45-4.36a103.93,103.93,0,0,1,22.49,2.47,63.3,63.3,0,0,1,18.52,6.84l-10.3,22a61.56,61.56,0,0,0-30.71-7.92q-9.91,0-14.86,2.77t-5,7.13q0,5,5.35,6.94t17,3.76a184,184,0,0,1,21.4,4.66,32.15,32.15,0,0,1,14.47,9q6.13,6.54,6.14,18.23a28.11,28.11,0,0,1-6,17.63q-5.94,7.72-17.33,12t-27,4.26A103.46,103.46,0,0,1,1046.62,593Z"/><path class="cls-2" d="M1213,589.52a31.67,31.67,0,0,1-11.19,5.05,56.81,56.81,0,0,1-14,1.69q-19,0-29.42-9.71T1148.06,558V514.23h-16.45V490.46h16.45V464.51H1179v25.95h26.55v23.77H1179v43.39q0,6.74,3.47,10.4t9.81,3.67a19.89,19.89,0,0,0,12.48-4Z"/><path class="cls-2" d="M527.5,338.07c-47,0-92.14,19.23-123.86,52.75a10.11,10.11,0,0,0,14.69,13.89c27.91-29.5,67.7-46.42,109.17-46.42C608.83,358.29,675,421.86,675,500c0,40.68-18,77.41-46.62,103.28a266.05,266.05,0,0,0-21-35.21,147.94,147.94,0,0,0,18.31-34.8c.7-2,1.36-4.13,2.05-6.32,2.72-8.63,5.53-17.54,12.89-28a86.84,86.84,0,0,1,9.78-11.59,11.81,11.81,0,0,0-10.81-19.93,67.55,67.55,0,0,1-14.11,1.51h0c-9.47,0-16.08-2-22.47-4-7.28-2.24-14.81-4.56-24.05-2.66-11.24,2.3-21.13,10.11-29.41,23.21a10.11,10.11,0,1,0,17.09,10.8c5.23-8.27,10.74-13,16.38-14.21,4-.82,7.56.19,14,2.18s14.67,4.51,25.82,4.86c-8.26,12.28-11.65,23-14.4,31.76-.63,2-1.23,3.93-1.87,5.78a129.19,129.19,0,0,1-12.24,24.62c-16.35-19.25-37.84-38.13-65-50-14.81-6.49-49.49-21.68-90.61-13.12a124,124,0,0,0-20.4,6.12l-6.83,2.71.47,7.34a109.25,109.25,0,0,0,22.59,60.14c16,20.61,38.3,34.08,66.3,40.05,33.23,7.1,63.54,2,85.35-14.25a85.15,85.15,0,0,0,7.59-6.39A247.78,247.78,0,0,1,612.11,616a150.77,150.77,0,0,1-84.61,25.7C446.18,641.71,380,578.14,380,500c0-2.62.08-5.27.22-7.87,11-8.7,17.54-26.16,18.39-39.74,1.91-30.74-23-50.92-28.05-54.65l-6.3-4.69-6.1,4.95c-3.17,2.57-30.85,26.06-26.24,58.54,2.11,14.9,12.2,36,27.91,40.25,0,1.07,0,2.14,0,3.21a156.85,156.85,0,0,0,1.12,18.62,59,59,0,0,0-6.18-3.36c-28-13-55.82,2.94-61.12,6.25L287,525.68l2.39,7.48c1.24,3.89,13.06,38.21,45,45.73a63,63,0,0,0,14.13,1.54c10.33,0,21.44-2.34,28.95-8.23,27.53,53.15,84.46,89.73,150.08,89.73,92.48,0,167.71-72.64,167.71-161.93S620,338.07,527.5,338.07ZM574,574c-17.07,12.74-41.59,16.53-69.12,10.66-23.13-4.94-41.47-15.94-54.49-32.68a89.59,89.59,0,0,1-17.55-41.53,100.52,100.52,0,0,1,9.89-2.58c34.8-7.25,64.23,5.65,78.38,11.85,25.46,11.15,45.43,29.37,60.41,47.71A69.24,69.24,0,0,1,574,574ZM366,555.11c-1.2,3.24-14.16,7.12-27,4.1-14.26-3.36-22.82-16-27.06-24.41,8.2-3.45,21.66-7.07,34.31-1.2S367.24,551.63,366,555.11Zm-1.12-135.5c6.2,6.39,14.46,17.62,13.6,31.53s-9.16,26.14-12.86,26.21h0c-3.48,0-11.76-10.65-13.6-23.65C349.89,439.19,358.54,426.63,364.84,419.61Z"/></svg>