<svg id="Layer_1" data-name="Layer 1" xmlns="http://www.w3.org/2000/svg" viewBox="0 0 1500 1000"><defs><style>.cls-1{fill:#42d9d1;}.cls-2{fill:#fff;}</style></defs><rect class="cls-1" width="1500" height="1000"/><path class="cls-2" d="M670.51,352.92v49H850.79v42c-.7,11-3.84,27.14-14.92,42.2a83.66,83.66,0,0,1-28.19,23.69,85.75,85.75,0,0,1-31,9.26H649.21V491.43h-49V568H777c4.82-.44,9.94-1.11,15.31-2.14a136,136,0,0,0,42.87-15,132.34,132.34,0,0,0,15.61-10.22A128.21,128.21,0,0,0,873.18,519l.8-1a124,124,0,0,0,21.28-40.67,120.53,120.53,0,0,0,4.54-23.76V352.92H670.51Z"/><path class="cls-2" d="M723,259.63c-4.82.44-9.94,1.11-15.31,2.13a136.4,136.4,0,0,0-42.87,15A132.34,132.34,0,0,0,649.21,287a128.21,128.21,0,0,0-22.39,21.63l-.8,1a124.06,124.06,0,0,0-21.28,40.68,120.53,120.53,0,0,0-4.54,23.76V474.75H829.49v-49H649.21v-42c.7-11,3.84-27.14,14.92-42.2a83.66,83.66,0,0,1,28.19-23.69,85.75,85.75,0,0,1,31-9.26H850.79v27.61h49V259.63Z"/><path class="cls-2" d="M385.7,723.34a35.1,35.1,0,0,1-30.6,17c-20.49,0-35.41-15-35.41-34.35,0-18.19,14.92-33.39,35.41-33.39,13.95,0,24.92,6.55,30.79,16.36l-13.38,7.79c-3.07-6-9.14-9.91-17.41-9.91-11.45,0-19.44,8.37-19.44,19.15a19.28,19.28,0,0,0,19.44,19.53,19,19,0,0,0,17.22-9.91Z"/><path class="cls-2" d="M441.21,729H409.65l-4.33,10.19H388.58l28-65.42h17.61l28.09,65.42H445.44Zm-5.48-12.9-10.2-24.44-10.39,24.44Z"/><path class="cls-2" d="M553.59,739.21H537.71V705.83L522,739.21H504.42l-15.68-33.38v33.38H473V673.79h17.51l22.8,48,22.71-48h17.61Z"/><path class="cls-2" d="M583.89,739.21H568.11V673.79h15.78Z"/><path class="cls-2" d="M614.29,724.59h34.35v14.62H598.52V673.79h15.77Z"/><path class="cls-2" d="M675.68,724.59H710v14.62H659.9V673.79h15.78Z"/><path class="cls-2" d="M771.41,673.79v14.62H737.06v11.26h28.67v13.66H737.06v11.26h34.35v14.62H721.28V673.79Z"/><path class="cls-2" d="M847.71,706.4c0,19.06-14.15,32.81-34.55,32.81h-29V673.88l29-.09C834.72,673.69,847.71,687.55,847.71,706.4ZM800,724.59h13.18c11,0,18.57-7.22,18.57-18.19,0-11.73-7.4-18-18.57-18H800Z"/><path class="cls-2" d="M874.55,739.21H858.77V673.79h15.78Z"/><path class="cls-2" d="M950.85,687l-13.67,6.93c-3.27-4.14-8.37-6.45-15.87-6.45-11.45,0-19.44,8-19.44,18.86a19.29,19.29,0,0,0,19.63,19.34c7,0,12.6-2.22,16.07-5.49v-6.35H917.65V701.69h33.87v24.25c-.48,1-10.78,14.43-29.92,14.43C900,740.37,886,724.11,886,706.5c0-18.18,14.92-33.87,35.51-33.87A36,36,0,0,1,950.85,687Z"/><path class="cls-2" d="M979.23,739.21H963.45V673.79h15.78Z"/><path class="cls-2" d="M1052.35,688.41h-23.19v50.8h-16v-50.8H990V673.79h62.35Z"/><path class="cls-2" d="M1098.43,729h-31.56l-4.33,10.19H1045.8l28-65.42h17.61l28.09,65.42h-16.83Zm-5.48-12.9-10.2-24.44-10.39,24.44Z"/><path class="cls-2" d="M1146,724.59h34.35v14.62h-50.13V673.79H1146Z"/></svg>