<svg id="Layer_1" data-name="Layer 1" xmlns="http://www.w3.org/2000/svg" viewBox="0 0 1500 1000"><defs><style>.cls-1{fill:#402020;}.cls-2{fill:#f05260;}</style></defs><rect class="cls-1" width="1500" height="1000"/><path class="cls-2" d="M575.21,335.55V515.82c16,0,31.15-.25,46.26,0,31.89.64,49.44,18.34,49.82,50,.15,12.59,0,25.18,0,37.77v57.72H634c0-12.24.12-23.94,0-35.63-.24-18.67,0-37.38-1.21-56C631.94,556.59,624,550,611,549.65c-11.39-.3-22.79-.06-35.53-.06V661.35H537.78c-.18-4-.53-8-.53-12,0-100.3.16-200.61-.29-300.92-.05-11,3.58-14,13.69-13C558.15,336.13,565.77,335.55,575.21,335.55Z"/><path class="cls-2" d="M696.42,336.87V292.2H734.5v12.27q0,71.4,0,142.81a101.36,101.36,0,0,1-1.11,14.77c-2,13.28-7.15,19.73-20.58,20.14-25.44.77-51,.58-76.4-.83-19.39-1.07-32.18-13-38.3-31.11-8.63-25.5-9.5-51.6-1.87-77.42,6.35-21.47,21.58-34.1,43.9-35.69C658.23,335.84,676.54,336.87,696.42,336.87Zm.31,29.89c-15.75,0-30.18-.79-44.47.26-11,.81-18.64,8.43-19.55,19.22a259.25,259.25,0,0,0,0,45.27c1,11,9.24,17.33,20.48,17.85a304.63,304.63,0,0,0,35.37-.05c2.89-.21,7.72-5.05,7.79-7.86C697,417.12,696.73,392.78,696.73,366.76Z"/><path class="cls-2" d="M885.31,451.34v30.75c-3.24.27-6.49.78-9.74.79-25.18.06-50.37.15-75.55,0-35.33-.2-49.95-14.78-49.94-50.35,0-21-.19-42,1.66-62.83,1.69-19.09,13.67-31.21,32.62-32.37a594.59,594.59,0,0,1,71.89,0c20.29,1.23,33.46,15.92,34.46,36.19.83,16.73.17,33.53.17,51.94H786.33c-3.22,21.77.1,25.84,19.74,25.89,22.13.05,44.26,0,66.39,0ZM785.63,396h70.26c3.38-25.46.41-28.95-23.93-28.95-9.1,0-18.21-.05-27.32,0-17.47.14-19.73,2.39-19.66,19.66C785,389.7,785.38,392.63,785.63,396Z"/><path class="cls-2" d="M907.9,335c35.42,0,69.37-.43,103.31.15,23.42.4,39.93,17.62,40.31,41,.35,21.36.32,42.74.06,64.1-.29,24.9-16.43,41.76-41.27,42.5-20.59.61-41.22.66-61.8,0-24.75-.83-41-18.08-41.14-42.74-.16-31.66-.06-63.33,0-95C907.35,342.05,907.67,339.1,907.9,335Zm111.57,74.17c0-9.53-.12-19.06,0-28.59.13-8.42-3.34-12.73-12.21-12.63-18.68.22-37.36.18-56,0q-11.46-.11-11.52,10.94c-.14,19.82-.11,39.65,0,59.47,0,7.93,3.89,11.56,12.15,11.42,18.3-.32,36.6-.36,54.89,0,9.56.19,13-4.28,12.77-13.19C1019.3,427.5,1019.47,418.34,1019.47,409.19Z"/><path class="cls-2" d="M1008,661.82V628.67h56.47c8,0,16.08.56,24-.33,3.43-.38,6.52-3.77,9.77-5.79-2.31-3.46-3.92-8.92-7.06-10-13.59-4.82-27.64-8.35-41.51-12.39-5.1-1.49-10.24-2.9-15.24-4.69-27.4-9.78-32.1-29-27.4-53.86,2.91-15.38,14.65-25,31.21-25.4,30.46-.79,61-.23,92.26-.23V549c-23,0-45.83-.3-68.61.17-6.88.15-17.5-4-19.1,6.69s9.67,11.18,16.71,13.5c16.6,5.48,33.53,9.92,50.23,15.08,32.13,9.94,31.88,42.76,22.74,61.7-4.68,9.7-13.08,15.37-23.66,15.51C1075.63,662.11,1042.49,661.82,1008,661.82Z"/><path class="cls-2" d="M786,516.39h37.27v20.84c0,31.64.14,63.29-.13,94.93-.19,21.9-8,29.67-29.63,29.87-20.2.19-40.41.29-60.61-.17-24.59-.56-43-14.89-44.34-38.86-1.94-35.23-.5-70.65-.5-106.62h35.85c.25,3.94.71,7.94.73,11.93.08,23.63-.28,47.28.17,70.91.46,24.27,5.85,29.23,30.05,29.42,6.48.05,13-.28,19.44.07,9,.49,11.93-3.64,11.83-12.35-.34-29-.13-57.94-.13-86.92Z"/><path class="cls-2" d="M917.9,617.44l45.17-101.26h37.82a86,86,0,0,1-2.85,8.61c-26.3,58.21-52.75,116.35-78.85,174.66-2.71,6-5.72,8.75-12.53,8.3-9.37-.61-18.82-.15-30-.15,6.35-13.82,11.51-26.39,17.84-38.34,4-7.49,3.88-13.64.36-21.34-18.35-40.11-36.12-80.47-54.07-120.76-1.5-3.35-2.82-6.78-4.72-11.39,12,0,22.6-.62,33.09.36,3.29.31,7.58,4.33,9,7.68,12.13,27.88,23.7,56,35.46,84.05C914.65,610.29,915.77,612.67,917.9,617.44Z"/><path class="cls-2" d="M442.64,442.19c12.87-33.95,25-64.64,36-95.76,3.18-9,7.55-11.81,16.48-11,8.24.72,16.59.15,26.28.15-1.55,4.78-2.45,8.34-3.83,11.71q-24.09,58.53-48.29,117c-6.67,16.15-11.38,19.55-26.94,19.55s-20.23-3.3-26.92-19.48C398,422.19,380.57,380,362.26,335.66c12.66,0,24.26-.56,35.73.42,2.65.23,5.75,5.37,7.11,8.85,11,28.33,21.66,56.81,32.46,85.23C438.72,433.23,440.1,436.21,442.64,442.19Z"/><path class="cls-2" d="M1131.28,409c0,12.57.13,25.14,0,37.71-.15,11.47-4.51,14.26-15.1,9.42-14.86-6.8-29.72-13.65-44.18-21.24-3.1-1.63-4.49-6.52-6.63-9.93-.18-.27,0-.75,0-1.13.22-12.54-3.71-27.57,1.87-36.92,5.24-8.77,20.51-11.58,31.41-16.94,6.14-3,12.26-6.11,18.58-8.73,9.49-3.92,13.85-1.19,14,8.91C1131.47,383.06,1131.28,396,1131.28,409Z"/></svg>