<svg id="Layer_1" data-name="Layer 1" xmlns="http://www.w3.org/2000/svg" viewBox="0 0 1500 1000"><defs><style>.cls-1{fill:#f6d6e9;}.cls-2{fill:#831379;}</style></defs><rect class="cls-1" width="1500" height="1000"/><path class="cls-2" d="M751.35,288.89A112.92,112.92,0,1,0,864.27,401.81,113,113,0,0,0,751.35,288.89Zm0,198.93a86,86,0,1,1,86-86A86.1,86.1,0,0,1,751.35,487.82Z"/><path class="cls-2" d="M617.19,513.69l-38.9,7.24-32.78-176L604.26,334h0q17.13-3.21,34.28-6.39a135.09,135.09,0,0,1,247.62,65.26l26.63-4.75c-7-82.93-76.72-148.29-161.43-148.29A161.8,161.8,0,0,0,623,303.1l-18,3.35-90.84,16.91,42.62,228.95,83.64-15.57A175.44,175.44,0,0,1,617.19,513.69Z"/><path class="cls-2" d="M943.24,243.48l-89.59,16.68a176.44,176.44,0,0,1,25.59,22.61l42.47-7.91,32.77,176-52.17,9.71-32.47,6.05a135.1,135.1,0,0,1-253.59-64.85v-.17l-26.85,4.78c2.45,87.21,74.16,157.4,162,157.4a161.94,161.94,0,0,0,135.23-72.91l16.93-3.15,82.36-15.33Z"/><path class="cls-2" d="M470,759H454.26V707.73l-27.67,48.69a6.88,6.88,0,0,1-2.86,2.82,8.34,8.34,0,0,1-3.93,1,7.87,7.87,0,0,1-3.81-1,6.89,6.89,0,0,1-2.79-2.82l-27.79-48.69V759H369.8V679.58a7.83,7.83,0,0,1,5.76-7.62,8.27,8.27,0,0,1,2.52-.21,8.54,8.54,0,0,1,2.44.54,7.33,7.33,0,0,1,3.75,3.21l35.53,61.77,35.54-61.77a7.63,7.63,0,0,1,3.81-3.24,8.12,8.12,0,0,1,5.07-.3,7.82,7.82,0,0,1,4.14,2.82,7.59,7.59,0,0,1,1.62,4.8Z"/><path class="cls-2" d="M603,724.18a37.85,37.85,0,0,1-2.7,14.47,33.69,33.69,0,0,1-18.88,18.88,37.67,37.67,0,0,1-14.32,2.67H546a37.9,37.9,0,0,1-14.35-2.67,33.81,33.81,0,0,1-11.41-7.48,34.66,34.66,0,0,1-7.53-11.4A37.48,37.48,0,0,1,510,724.18V707.73a37.53,37.53,0,0,1,2.73-14.43,33.72,33.72,0,0,1,18.94-18.88,37.52,37.52,0,0,1,14.35-2.7h21.12a37.3,37.3,0,0,1,14.32,2.7,34.73,34.73,0,0,1,11.38,7.47,33.91,33.91,0,0,1,7.5,11.41,37.9,37.9,0,0,1,2.7,14.43Zm-15.61-16.45a22.76,22.76,0,0,0-1.47-8.37A18.1,18.1,0,0,0,575.4,688.8a22.44,22.44,0,0,0-8.26-1.47H546a22.61,22.61,0,0,0-8.32,1.47,18.82,18.82,0,0,0-6.45,4.14,18.29,18.29,0,0,0-4.17,6.42,22.76,22.76,0,0,0-1.47,8.37v16.45a22.82,22.82,0,0,0,1.47,8.38,18.29,18.29,0,0,0,4.17,6.42,18.82,18.82,0,0,0,6.45,4.14,22.61,22.61,0,0,0,8.32,1.47h21a22.63,22.63,0,0,0,8.31-1.47,18.82,18.82,0,0,0,6.45-4.14,18.29,18.29,0,0,0,4.17-6.42,22.82,22.82,0,0,0,1.47-8.38Z"/><path class="cls-2" d="M729.07,701.85a31.86,31.86,0,0,1-1.32,9.55,26.82,26.82,0,0,1-3.57,7.41A25.17,25.17,0,0,1,719,724.3a31.27,31.27,0,0,1-6.15,3.75,29.16,29.16,0,0,1-6.49,2.13,30.47,30.47,0,0,1-6.15.67L732.8,759H708.66l-32.53-28.15H664.91V715.24H700.2a18,18,0,0,0,5.37-1.23,13.39,13.39,0,0,0,4.21-2.67,11.36,11.36,0,0,0,2.73-4.06,14.37,14.37,0,0,0,1-5.43V692a4.81,4.81,0,0,0-.33-2,2.41,2.41,0,0,0-.84-1,2.44,2.44,0,0,0-1.08-.39,10.24,10.24,0,0,0-1.05-.06H658.66V759h-15.6V680.78a7.87,7.87,0,0,1,.59-3.06,8,8,0,0,1,1.66-2.52,7.4,7.4,0,0,1,2.49-1.68,8,8,0,0,1,3.12-.6h59.25a18.79,18.79,0,0,1,8.82,1.89,18,18,0,0,1,5.85,4.74,18.35,18.35,0,0,1,3.24,6.16,21.57,21.57,0,0,1,1,6.18Z"/><path class="cls-2" d="M847.12,759h-56.3a25.14,25.14,0,0,1-7.09-1.14,20.82,20.82,0,0,1-7.11-3.75,21.07,21.07,0,0,1-5.46-6.79A21.79,21.79,0,0,1,769,737.09V680.78a7.88,7.88,0,0,1,.6-3.06,8,8,0,0,1,1.65-2.52,7.4,7.4,0,0,1,2.49-1.68,8,8,0,0,1,3.12-.6h70.29v15.61H784.58v48.56a6.34,6.34,0,0,0,1.62,4.68,6.42,6.42,0,0,0,4.74,1.62h56.18Zm-7-35.18H790.82V708.09H840.1Z"/><path class="cls-2" d="M964.57,688.53H930.18V759H914.57V688.53H880.12V672.92h84.45Z"/><path class="cls-2" d="M1078.42,688.53H1044V759h-15.6V688.53H994V672.92h84.46Z"/><path class="cls-2" d="M1130.2,759h-15.61V672.92h15.61Z"/></svg>