<svg id="Layer_1" data-name="Layer 1" xmlns="http://www.w3.org/2000/svg" viewBox="0 0 1500 1000"><defs><style>.cls-1{fill:#320065;}.cls-2{fill:#fec519;}</style></defs><rect class="cls-1" width="1500" height="1000"/><path class="cls-2" d="M621.44,595.42a56.68,56.68,0,0,0,12-11.94,71,71,0,0,0,8.56-14.6q3.22-7.53,3.18-12.91.52-7.5-12.45-10.3t-33.86-2.25q-20.89.55-44.09,3t-42.93,5.31q24.27-15.63,53.21-37.53a644,644,0,0,0,55.6-47.29q26.65-25.4,44.11-51.46t18.73-50q-3-33.23-18.84-48t-38.78-14.71q-22.9,0-47.23,11a169.92,169.92,0,0,0-44.45,29.29q-20.13,18.3-30.12,40.11-1,2.4.15,8.76A51.05,51.05,0,0,0,509,405.44a40.69,40.69,0,0,0,9.69,12.5,21.85,21.85,0,0,0,15.1,5.26q4-19.36,17.73-36a117.05,117.05,0,0,1,30.25-26.55q16.55-9.89,28.83-8.94T624,368.49a145.41,145.41,0,0,1-24.57,50.39,247.24,247.24,0,0,1-38.74,40.33q-21.85,18.17-44.33,34.23a496.34,496.34,0,0,0-49.83,39.83q-21.69,20-28.52,44a32.53,32.53,0,0,0,1.75,12.11,38.45,38.45,0,0,0,4.43,9.17q2.42,3.51,3.32,3.19,45.48-22.41,87.79-23.46t72.61,22.06Q614.75,600.27,621.44,595.42Z"/><path class="cls-2" d="M696.74,400.23q-10.46,14.68-10.45,31.35,2.82,17.18,19.17,22.18t35.39.32q19-4.68,29.93-16.86,23.47,7.3,44.11-8.46a102.49,102.49,0,0,0,31.54-39.88q-1.15-6.54-7.5-6.28a11.15,11.15,0,0,0-9.68,6q-21.4,38.6-40.77,31.8,25.38-32.82,28.46-71.48t-38.72-47.5q-31.92-.78-50.07,20.7t-8.78,51.61A191,191,0,0,0,696.74,400.23ZM767.64,326q16-.57,22.51,19.1t-16.42,60.07l-14.87-19.1q12.95-10.12,17-22.05t-10.77-25.39q-2.94-1.8-8.4.77a38.23,38.23,0,0,0-10.32,7.31Q751.69,326.57,767.64,326Zm-27.88,80.07,1.66,1.67a70.43,70.43,0,0,1,12.44,15.38q-9.36,8.22-16.8,8t-8-6.93Q728.48,417.48,739.76,406.06Z"/><path class="cls-2" d="M743.77,495.16a167,167,0,0,1,34.87-5.26c4.34-.21,8.69-.37,13.08-.49q12.06-.33,24.36-.16c4.21,0,8.4,0,12.53-.06.89-2.71,1.74-5.55,2.57-8.51q2-6.39,3.91-12c-.45-.27-.94-.55-1.45-.83a72.55,72.55,0,0,0-19.29-5.25q-10.46-1.43-20.32-1.92l-5.52-.26q-16.15.25-40.9,1.73t-51.67,5.13a315,315,0,0,0-49.81,10.64q-22.89,7-35.32,18.65-1.56,3.72-.14,9.11a56.52,56.52,0,0,0,4.1,10.77,134.28,134.28,0,0,0,7.45,12.69q11.4-4.49,22.56-10,11.93-5.76,24.23-10.57A111,111,0,0,1,694.4,502q-24.63,38.85-50.07,98T605.8,710.69a41.47,41.47,0,0,0,13.4,18.66q9.3,7.36,16.92,8.58c5.09.82,7.29-1.26,6.61-6.21q10.89-39.63,39.49-108.09A1335.76,1335.76,0,0,1,743.77,495.16Z"/><path class="cls-2" d="M743.12,691.52q18-9.81,35-41.22,1,5.13,1.66,11.79a89.72,89.72,0,0,0,4.43,22.38q3.64,11,15.45,15.58,26.54,9.36,60.77-36.55,10.17,5.85,20.34,2.24c0,.92-.08,1.84-.08,2.76q2.82,17.19,19.17,22.19t35.39.32q19-4.68,29.94-16.86,23.46,7.3,44.1-8.47a102.41,102.41,0,0,0,31.55-39.87q-1.15-6.54-7.51-6.28a11.16,11.16,0,0,0-9.68,6q-21.4,38.6-40.77,31.8,25.4-32.82,28.46-71.48t-38.72-47.51q-31.92-.76-50.07,20.71t-8.78,51.61c-2.54,2.46-5,5-7.45,7.68q-4,.55-6.65,5.53-2.91,5.07-5.59,9.25-1.49,2-2.94,4-1.3,1.83-2.46,3.71-14.79,19.3-22,5.84,23.71-44.62,22.82-74t-17.18-34.88q-18.6-3.72-30.65,11.28t-17.88,44.69q-5.83,29.68,11.22,49.3-9.37,28.33-22.19,36.8.39-30.52-.38-35a106.39,106.39,0,0,0-4.42-19.1,24.63,24.63,0,0,0-10.45-13.59q-8.85-3.86-13.4-.52t-9,11.29q-41.16,63-41.55,41.92-.51-11.53,52.45-104.49,2-20.26-13-28.4t-19-4.3q-11.42,21.16-26,54.69a370.38,370.38,0,0,0-21.54,63.72q-7,30.2,4.68,41.22Q725.18,701.33,743.12,691.52Zm218.94-128.6q16-.58,22.5,19.1t-16.41,60.07L953.27,623q12.94-10.12,17.06-22.06t-10.77-25.38q-3-1.8-8.4.77a38.07,38.07,0,0,0-10.33,7.3Q946.1,563.51,962.06,562.92ZM934.17,643l1.66,1.67A69.67,69.67,0,0,1,948.27,660q-9.36,8.21-16.79,8t-8-6.93Q922.89,654.4,934.17,643Zm-89.88-52.76q5.51-22.38,8.52-28t6.86-2.76q3.86,2.82-3.52,28.66t-12.5,36.09Q838.78,612.6,844.29,590.23Z"/><path class="cls-2" d="M526.31,296.48q4.77.69,11.89-3.64,11.37-4.39,30.41-9.94c11.74-3.42,30-8,41.57-10.44,38.47-8,83.56-8.58,83.56-8.58,93.41-1.16,165.35,16.69,166.85,10.55,1.94-7.93-121-44.67-182.88-43.59-22.89.4-46.18,3.16-46.18,3.16q-25,3.1-48.1,8.28.39-13.65-6.23-14.87t-16.56,5.33a114.37,114.37,0,0,0-19.22,16.11,108.34,108.34,0,0,0-14.17,17.37l-.14.17c-.21.19-.52.47-.87.84a15.89,15.89,0,0,0-3.59,6.35c-1.74,5.31-2.41,8.94-1.94,13.76Q521.55,295.79,526.31,296.48Z"/><path class="cls-2" d="M1061.92,712.66q-.84-8.45-5.6-9.14t-11.89,3.64q-11.37,4.4-30.41,9.94c-11.74,3.42-30,8-41.57,10.44-38.47,8-83.56,8.58-83.56,8.58-93.41,1.16-165.35-16.69-166.85-10.55-1.94,7.93,121,44.67,182.88,43.59,22.89-.4,46.18-3.16,46.18-3.16q25-3.11,48.11-8.28-.4,13.65,6.22,14.87t16.56-5.33a114.37,114.37,0,0,0,19.22-16.11,108.34,108.34,0,0,0,14.17-17.37l.14-.17c.21-.19.52-.47.87-.84a15.77,15.77,0,0,0,3.59-6.35C1061.72,721.11,1062.39,717.48,1061.92,712.66Z"/><path class="cls-2" d="M859.67,358.8a28.53,28.53,0,0,0,4.09,14.78L832,429.13q-2.62,7.23,3.2,8.18t9.38-4.51l29-49.89a24.64,24.64,0,0,0,10.8,3q9.44,0,20.54-7-4.19,8.49-12.79,23.06-12.88,20.64-25.26,45.07-13.2,26.2-15.09,49.78t22.33,29.25h.21q20.74,0,38.2-20.28t48-73.95q.63-7.44-7.86-6.4-3.66,0-6.5,5.25-2.92,5.87-10.95,18.81t-18,26.36q-10,13.42-17,19.34t-10.85,5.92a5.55,5.55,0,0,1-4.4-2.09q2.31-20.44,17.87-46.12T933,407.23q6.91-9.64,11.11-15.94a28.38,28.38,0,0,0,4.62-14.88,23.31,23.31,0,0,0-1.16-7.23q-3.45-10.8-15.3-17.3a21.46,21.46,0,0,0-5.24-.73q-6.83,0-15.31,7-6.5,5.35-10.79,5.35a9,9,0,0,1-3.67-.84,5.85,5.85,0,0,1-3.46-5.35q0-3.76,2.94-9.11,2.51-4.62,5.13-8.6,3.36-4.81,3.36-6.29a38.07,38.07,0,0,0-1.31-7q-1.32-5.3-6.61-9.7t-16.72-4.5l-4.5,6.18q-13.32,18.14-16,35.74A27.58,27.58,0,0,0,859.67,358.8Z"/></svg>