<svg id="Layer_1" data-name="Layer 1" xmlns="http://www.w3.org/2000/svg" viewBox="0 0 1500 1000"><defs><style>.cls-1{fill:gold;}.cls-2{fill:#231f20;}</style></defs><rect class="cls-1" width="1500" height="1000"/><circle class="cls-2" cx="672.47" cy="425.32" r="35.14" transform="translate(182.96 1052.61) rotate(-84.35)"/><path class="cls-2" d="M860.93,329.09a96.27,96.27,0,0,0-94.23,76.59,96.24,96.24,0,1,0,0,39.28,96.24,96.24,0,1,0,94.23-115.87ZM672.47,486.92a61.6,61.6,0,1,1,61.6-61.6A61.6,61.6,0,0,1,672.47,486.92Zm188.46,0a61.6,61.6,0,1,1,61.6-61.6A61.6,61.6,0,0,1,860.93,486.92Z"/><circle class="cls-2" cx="860.93" cy="425.32" r="35.14" transform="translate(138.52 1057.95) rotate(-67.5)"/><path class="cls-2" d="M764.65,505a126.69,126.69,0,0,1-46.06,36l46.11,46.1L810.77,541A126.93,126.93,0,0,1,764.65,505Z"/><path class="cls-2" d="M987.7,205.65C971.84,186.51,931,209,931.44,212c.38,2.35,27.32-6,40.85,5.22a586.39,586.39,0,0,1-208.81,37.71,586,586,0,0,1-198.32-35.36l-14-5.3q-22.26,97.8-44.53,195.6l44.65.93q6.27-86,12.56-172C597.19,262.41,667.71,303,764.27,302.4c112-.63,188.52-56.13,213.92-76.74,3.3,8.93,1.44,20.71-1.69,31.39C995.24,241.82,997.44,217.4,987.7,205.65Z"/><path class="cls-2" d="M509.75,715.62H477.94V694.36q0-9.27-1-11.58t-4.5-2.3c-2.62,0-4.28.94-5,2.8s-1.06,5.89-1.06,12.09v56.82c0,5.95.35,9.82,1.06,11.64s2.29,2.72,4.76,2.72,3.91-.91,4.64-2.73,1.1-6.08,1.1-12.8V735.64h31.81v4.77q0,19-2.68,26.94t-11.86,13.92q-9.18,6-22.63,6-14,0-23.05-5.06t-12-14q-2.94-9-2.94-26.94V705.49a160.09,160.09,0,0,1,.9-19.83,27.79,27.79,0,0,1,5.41-12.73,30.16,30.16,0,0,1,12.46-9.64,45.13,45.13,0,0,1,18.33-3.51q14.06,0,23.2,5.43t12,13.55q2.87,8.12,2.87,25.24Z"/><path class="cls-2" d="M551.69,662.35V784.68H520.25V662.35Z"/><path class="cls-2" d="M589.92,723.25H561.28v-6.72q0-11.64,2.69-17.95t10.77-11.15q8.07-4.83,21-4.83,15.5,0,23.35,5.48t9.44,13.45q1.59,8,1.59,32.83v50.32H600.43v-8.93a18.64,18.64,0,0,1-17.76,10.75A25.79,25.79,0,0,1,568,782q-6.69-4.5-6.69-19.68v-8.24q0-11.26,3.56-15.34t17.6-9.52q15-5.9,16.1-7.93t1.05-8.32c0-5.23-.39-8.65-1.17-10.23a4,4,0,0,0-3.89-2.38c-2.06,0-3.35.66-3.85,2s-.76,4.8-.76,10.39ZM599.59,737q-7.32,5.37-8.5,9a35.79,35.79,0,0,0-1.17,10.43q0,7.79,1,10.05t4,2.27c1.91,0,3.16-.59,3.74-1.78s.86-4.29.86-9.33Z"/><path class="cls-2" d="M703,716.45H675.91V711c0-4.63-.26-7.57-.79-8.8s-1.85-1.85-4-1.85a4.49,4.49,0,0,0-3.85,1.7,8.37,8.37,0,0,0-1.29,5.1,25.64,25.64,0,0,0,.65,6.76c.42,1.43,1.71,3,3.85,4.72s6.54,4.21,13.18,7.48q13.3,6.5,17.46,12.24t4.16,16.7q0,12.24-3.18,18.48a21.07,21.07,0,0,1-10.61,9.59q-7.46,3.36-17.95,3.37-11.64,0-19.91-3.63t-11.37-9.82q-3.1-6.19-3.1-18.74v-4.84h27v6.35q0,8.08,1,10.5a4,4,0,0,0,4,2.42q3.26,0,4.54-1.63t1.28-6.83q0-7.18-1.66-9T657.7,740.55q-13.46-7.54-16.4-13.71a33.66,33.66,0,0,1-2.94-14.62q0-12,3.17-17.72t10.77-8.8a46.35,46.35,0,0,1,17.64-3.1,50,50,0,0,1,17,2.53,26.13,26.13,0,0,1,10.73,6.69q3.74,4.15,4.53,7.7a56,56,0,0,1,.79,11.11Z"/><path class="cls-2" d="M775.8,716.45h-27V711c0-4.63-.26-7.57-.79-8.8s-1.85-1.85-4-1.85a4.51,4.51,0,0,0-3.85,1.7,8.37,8.37,0,0,0-1.29,5.1,25.64,25.64,0,0,0,.65,6.76c.42,1.43,1.71,3,3.85,4.72s6.54,4.21,13.19,7.48q13.29,6.5,17.45,12.24t4.16,16.7q0,12.24-3.18,18.48a21.07,21.07,0,0,1-10.61,9.59q-7.46,3.36-18,3.37-11.64,0-19.91-3.63t-11.37-9.82q-3.11-6.19-3.1-18.74v-4.84h27.05v6.35q0,8.08,1,10.5a4,4,0,0,0,4,2.42q3.25,0,4.54-1.63t1.28-6.83q0-7.18-1.66-9t-17.76-10.73Q717.1,733,714.15,726.84a33.51,33.51,0,0,1-2.95-14.62q0-12,3.17-17.72t10.77-8.8a46.35,46.35,0,0,1,17.64-3.1,50,50,0,0,1,17,2.53,26.13,26.13,0,0,1,10.73,6.69q3.74,4.15,4.53,7.7a56,56,0,0,1,.79,11.11Z"/><path class="cls-2" d="M860.36,662.35V784.68H828.55V733.3H819v51.38H787.21V662.35H819V706.1h9.52V662.35Z"/><path class="cls-2" d="M903.66,662.35v15.94H872.22V662.35Zm0,22.06V784.68H872.22V684.41Z"/><path class="cls-2" d="M984,684.41v77.23q0,15.63-.72,20.21t-5.1,9.67A27.28,27.28,0,0,1,966,799.3Q958.13,802,946.27,802q-14.58,0-23.42-5t-9.15-19.46h29.62c0,4.43,1.62,6.65,4.84,6.65,2.32,0,3.85-.68,4.61-2s1.13-4.21,1.13-8.55v-7.56a29,29,0,0,1-8.27,5.37,23.23,23.23,0,0,1-9.11,1.82q-8.24,0-13.56-3.32a17,17,0,0,1-7.29-8.73q-2-5.4-2-15.38V709.42q0-14.28,5.14-20.55t15.64-6.27A23.14,23.14,0,0,1,945,685a24.66,24.66,0,0,1,8.42,7l2.2-7.58ZM953.37,711c0-4.58-.26-7.51-.79-8.77s-1.7-1.88-3.51-1.88a3.84,3.84,0,0,0-3.74,2.15q-1.1,2.16-1.1,8.5v33.7q0,6.72.83,8.73a3.37,3.37,0,0,0,3.48,2q3,0,3.93-2.42t.9-10.95Z"/><path class="cls-2" d="M1025.38,662.35v27.52a27.44,27.44,0,0,1,8.51-5.45,26.2,26.2,0,0,1,9.78-1.82,22.61,22.61,0,0,1,13.64,4.08q5.63,4.08,6.88,9.41t1.24,19.45v69.14h-30.52V714.11q0-8.76-.87-11.26a4.17,4.17,0,0,0-7.67.07q-1,2.58-1,10.21v71.55H994.86V662.35Z"/></svg>